{"asset": {"version": "2.0", "generator": "kartemu acc_gltf"}, "extensionsUsed": ["KHR_materials_unlit"], "scene": 0, "scenes": [{"nodes": [3]}], "nodes": [{"name": "Relement", "matrix": [1.0, 0.0, 0.0, 0.0, 0.0, 1.0, 0.0, 0.0, 0.0, 0.0, 1.0, 0.0, 0.0, 0.0, 0.0, 1.0], "children": [1]}, {"name": "Object01", "matrix": [0.5926725268363953, 0.0, 0.0, 0.0, 0.0, -3.022675884604067e-08, 0.6915076375007629, 0.0, 0.0, -0.30888450145721436, -1.3501770378951764e-08, 0.0, 0.0, -2.8494014259194955e-08, 0.3747493624687195, 1.0], "children": [2]}, {"name": "ReToonRigid", "matrix": [1.0, 0.0, 0.0, 0.0, 0.0, 1.0, 0.0, 0.0, 0.0, 0.0, 1.0, 0.0, 0.0, 0.0, 0.0, 1.0], "mesh": 0}, {"rotation": [-0.7071067811865476, 0.0, 0.0, 0.7071067811865476], "children": [0], "name": "zup_root"}], "meshes": [{"primitives": [{"attributes": {"POSITION": 0, "NORMAL": 1, "TEXCOORD_0": 2}, "indices": 3, "material": 0, "mode": 4}], "name": "mesh"}], "materials": [{"name": "__default__", "doubleSided": true, "pbrMetallicRoughness": {"metallicFactor": 0.0, "roughnessFactor": 1.0, "baseColorFactor": [0.7, 0.7, 0.7, 1.0]}, "extensions": {"KHR_materials_unlit": {}}}], "textures": [], "images": [], "accessors": [{"bufferView": 0, "componentType": 5126, "count": 384, "type": "VEC3", "min": [-0.9479155540466309, -0.5393353700637817, -0.9495111107826233], "max": [0.9511878490447998, 1.087110161781311, 0.9495517015457153]}, {"bufferView": 1, "componentType": 5126, "count": 384, "type": "VEC3"}, {"bufferView": 2, "componentType": 5126, "count": 384, "type": "VEC2"}, {"bufferView": 3, "componentType": 5125, "count": 384, "type": "SCALAR"}, {"bufferView": 4, "componentType": 5126, "count": 19, "type": "SCALAR"}, {"bufferView": 5, "componentType": 5126, "count": 19, "type": "VEC3"}], "bufferViews": [{"buffer": 0, "byteOffset": 0, "byteLength": 4608, "target": 34962}, {"buffer": 0, "byteOffset": 4608, "byteLength": 4608, "target": 34962}, {"buffer": 0, "byteOffset": 9216, "byteLength": 3072, "target": 34962}, {"buffer": 0, "byteOffset": 12288, "byteLength": 1536, "target": 34963}, {"buffer": 0, "byteOffset": 13824, "byteLength": 76, "target": null}, {"buffer": 0, "byteOffset": 13900, "byteLength": 228, "target": null}], "buffers": [{"uri": "balloon.bin", "byteLength": 14128}], "animations": [{"name": "prs", "channels": [{"sampler": 0, "target": {"node": 1, "path": "position"}}], "samplers": [{"input": 4, "output": 5, "interpolation": "LINEAR"}]}]}