{"asset": {"version": "2.0", "generator": "kartemu acc_gltf"}, "extensionsUsed": ["KHR_materials_unlit"], "scene": 0, "scenes": [{"nodes": [4]}], "nodes": [{"name": "rootRelement", "matrix": [1.0, 0.0, 0.0, 0.0, 0.0, 1.0, 0.0, 0.0, 0.0, 0.0, 1.0, 0.0, 0.0, 0.0, 0.0, 1.0], "children": [1]}, {"name": "Scene Root", "matrix": [1.0, 0.0, 0.0, 0.0, 0.0, 1.0, 0.0, 0.0, 0.0, 0.0, 1.0, 0.0, 0.0, 0.0, 0.0, 1.0], "children": [2]}, {"name": "고글04", "matrix": [1.0483750104904175, 0.0, 0.0, 0.0, 0.0, 1.0458213065161885, 0.07313094112329566, 0.0, 0.0, -0.07313094112329566, 1.0458213065161885, 0.0, 2.2741275529369886e-09, -0.09704263508319855, -0.09314675629138947, 1.0], "children": [3]}, {"name": "고글04_Geom", "matrix": [1.0, 0.0, 0.0, 0.0, 0.0, 1.0, 0.0, 0.0, 0.0, 0.0, 1.0, 0.0, 0.0, 0.0, 0.0, 1.0], "mesh": 0}, {"rotation": [-0.7071067811865476, 0.0, 0.0, 0.7071067811865476], "children": [0], "name": "zup_root"}], "meshes": [{"primitives": [{"attributes": {"POSITION": 0, "NORMAL": 1, "TEXCOORD_0": 2}, "indices": 3, "material": 0, "mode": 4}], "name": "고글04_Geom"}], "materials": [{"name": "2010고글@zz", "doubleSided": true, "pbrMetallicRoughness": {"baseColorTexture": {"index": 0}, "baseColorFactor": [1, 1, 1, 1], "metallicFactor": 0.0, "roughnessFactor": 1.0}, "extensions": {"KHR_materials_unlit": {}}}], "textures": [{"source": 0}], "images": [{"uri": "goggle_textures/2010고글@zz.png"}], "accessors": [{"bufferView": 0, "componentType": 5126, "count": 588, "type": "VEC3", "min": [-0.5098092555999756, -0.0917816311120987, -0.1470644325017929], "max": [0.5098092555999756, 0.1857985109090805, 0.44294852018356323]}, {"bufferView": 1, "componentType": 5126, "count": 588, "type": "VEC3"}, {"bufferView": 2, "componentType": 5126, "count": 588, "type": "VEC2"}, {"bufferView": 3, "componentType": 5125, "count": 588, "type": "SCALAR"}], "bufferViews": [{"buffer": 0, "byteOffset": 0, "byteLength": 7056, "target": 34962}, {"buffer": 0, "byteOffset": 7056, "byteLength": 7056, "target": 34962}, {"buffer": 0, "byteOffset": 14112, "byteLength": 4704, "target": 34962}, {"buffer": 0, "byteOffset": 18816, "byteLength": 2352, "target": 34963}], "buffers": [{"uri": "goggle.bin", "byteLength": 21168}]}