{"asset": {"version": "2.0", "generator": "kartemu acc_gltf"}, "extensionsUsed": ["KHR_materials_unlit"], "scene": 0, "scenes": [{"nodes": [13]}], "nodes": [{"name": "rootRelement", "matrix": [1.0, 0.0, 0.0, 0.0, 0.0, 1.0, 0.0, 0.0, 0.0, 0.0, 1.0, 0.0, 0.0, 0.0, 0.0, 1.0], "children": [1]}, {"name": "Scene Root", "matrix": [1.0, 0.0, 0.0, 0.0, 0.0, 1.0, 0.0, 0.0, 0.0, 0.0, 1.0, 0.0, 0.0, 0.0, 0.0, 1.0], "children": [2]}, {"name": "headPhone", "matrix": [1.000999927520752, -4.773139608005295e-07, -9.54627921601059e-07, 0.0, 4.773139608005295e-07, 1.000999927520752, 0.0, 0.0, 9.54627921601059e-07, -4.552020652776045e-13, 1.000999927520752, 0.0, 0.0, 0.0, 0.0, 1.0], "children": [3, 5, 7, 9, 11]}, {"name": "Cylinder01", "matrix": [0.19520780444145203, 9.308233472893335e-08, 1.861646694578667e-07, 0.0, -9.308233472893335e-08, 0.19520780444145203, 0.0, 0.0, -1.2201368804198864e-07, -5.818066026782448e-14, 0.12794062495231628, 0.0, 0.04831194877624512, 2.3036811569454585e-08, -0.26593533158302307, 1.0], "children": [4]}, {"name": "Cylinder01_Geom", "matrix": [1.0, 0.0, 0.0, 0.0, 0.0, 1.0, 0.0, 0.0, 0.0, 0.0, 1.0, 0.0, 0.0, 0.0, 0.0, 1.0], "mesh": 0}, {"name": "Cylinder11", "matrix": [0.1550000011920929, 7.390977771137855e-08, 1.4781952017983713e-07, 0.0, -1.5030888621008737e-07, 0.005409403950601077, 0.15490559071229804, 0.0, 6.87059491210632e-08, -0.15490559071229804, 0.005409403950601077, 0.0, 0.04831219092011452, -0.2685627043247223, -0.3841841220855713, 1.0], "children": [6]}, {"name": "Cylinder11_Geom", "matrix": [1.0, 0.0, 0.0, 0.0, 0.0, 1.0, 0.0, 0.0, 0.0, 0.0, 1.0, 0.0, 0.0, 0.0, 0.0, 1.0], "mesh": 1}, {"name": "Sphere01", "matrix": [0.1550000011920929, 7.390977771137855e-08, 1.4781952017983713e-07, 0.0, -1.5030888621008737e-07, 0.005409403950601077, 0.15490559071229804, 0.0, 6.87059491210632e-08, -0.15490559071229804, 0.005409403950601077, 0.0, 0.04831213131546974, -0.13990770280361176, -0.3883528411388397, 1.0], "children": [8]}, {"name": "Sphere01_Geom", "matrix": [1.0, 0.0, 0.0, 0.0, 0.0, 1.0, 0.0, 0.0, 0.0, 0.0, 1.0, 0.0, 0.0, 0.0, 0.0, 1.0], "mesh": 2}, {"name": "Cylinder10", "matrix": [-2.595758493503294e-07, -8.458055982360174e-14, -0.3282638490200043, 0.0, 7.826419112393953e-08, 0.3282638490200043, -1.4646824719956962e-13, 0.0, 0.3282638490200043, -7.826419112393953e-08, -2.595758493503294e-07, 0.0, 0.0, 0.0, 0.0, 1.0], "children": [10]}, {"name": "Cylinder10_Geom", "matrix": [1.0, 0.0, 0.0, 0.0, 0.0, 1.0, 0.0, 0.0, 0.0, 0.0, 1.0, 0.0, 0.0, 0.0, 0.0, 1.0], "mesh": 3}, {"name": "Cylinder12", "matrix": [0.1550000011920929, 7.390977771137855e-08, 1.4781952017983713e-07, 0.0, -1.5030888621008737e-07, 0.005409403950601077, 0.15490559071229804, 0.0, 6.87059491210632e-08, -0.15490559071229804, 0.005409403950601077, 0.0, 0.0483122281730175, -0.3390243947505951, -0.3817235231399536, 1.0], "children": [12]}, {"name": "Cylinder12_Geom", "matrix": [1.0, 0.0, 0.0, 0.0, 0.0, 1.0, 0.0, 0.0, 0.0, 0.0, 1.0, 0.0, 0.0, 0.0, 0.0, 1.0], "mesh": 4}, {"rotation": [-0.7071067811865476, 0.0, 0.0, 0.7071067811865476], "children": [0], "name": "zup_root"}], "meshes": [{"primitives": [{"attributes": {"POSITION": 0, "NORMAL": 1, "TEXCOORD_0": 2}, "indices": 3, "material": 0, "mode": 4}], "name": "Cylinder01_Geom"}, {"primitives": [{"attributes": {"POSITION": 4, "NORMAL": 5, "TEXCOORD_0": 6}, "indices": 7, "material": 0, "mode": 4}], "name": "Cylinder11_Geom"}, {"primitives": [{"attributes": {"POSITION": 8, "NORMAL": 9, "TEXCOORD_0": 10}, "indices": 11, "material": 0, "mode": 4}], "name": "Sphere01_Geom"}, {"primitives": [{"attributes": {"POSITION": 12, "NORMAL": 13, "TEXCOORD_0": 14}, "indices": 15, "material": 0, "mode": 4}], "name": "Cylinder10_Geom"}, {"primitives": [{"attributes": {"POSITION": 16, "NORMAL": 17, "TEXCOORD_0": 18}, "indices": 19, "material": 0, "mode": 4}], "name": "Cylinder12_Geom"}], "materials": [{"name": "카메라", "doubleSided": true, "pbrMetallicRoughness": {"baseColorTexture": {"index": 0}, "baseColorFactor": [1, 1, 1, 1], "metallicFactor": 0.0, "roughnessFactor": 1.0}, "extensions": {"KHR_materials_unlit": {}}}], "textures": [{"source": 0}], "images": [{"uri": "headcamera_textures/카메라.png"}], "accessors": [{"bufferView": 0, "componentType": 5126, "count": 60, "type": "VEC3", "min": [-0.16582661867141724, -0.6785297989845276, -0.060957394540309906], "max": [0.16582664847373962, -0.18231947720050812, 0.90241539478302]}, {"bufferView": 1, "componentType": 5126, "count": 60, "type": "VEC3"}, {"bufferView": 2, "componentType": 5126, "count": 60, "type": "VEC2"}, {"bufferView": 3, "componentType": 5125, "count": 60, "type": "SCALAR"}, {"bufferView": 4, "componentType": 5126, "count": 84, "type": "VEC3", "min": [-0.42123648524284363, -0.42123648524284363, -0.04491310939192772], "max": [0.42123648524284363, 0.42123648524284363, 0.40113431215286255]}, {"bufferView": 5, "componentType": 5126, "count": 84, "type": "VEC3"}, {"bufferView": 6, "componentType": 5126, "count": 84, "type": "VEC2"}, {"bufferView": 7, "componentType": 5125, "count": 84, "type": "SCALAR"}, {"bufferView": 8, "componentType": 5126, "count": 144, "type": "VEC3", "min": [-0.8367692828178406, -0.8277904391288757, -0.89630126953125], "max": [0.8367692828178406, 0.8277904391288757, 0.89630126953125]}, {"bufferView": 9, "componentType": 5126, "count": 144, "type": "VEC3"}, {"bufferView": 10, "componentType": 5126, "count": 144, "type": "VEC2"}, {"bufferView": 11, "componentType": 5125, "count": 144, "type": "SCALAR"}, {"bufferView": 12, "componentType": 5126, "count": 90, "type": "VEC3", "min": [-0.5365090370178223, -0.5407072901725769, -2.464772137500404e-07], "max": [0.5378138422966003, 0.5407072901725769, 0.3432854413986206]}, {"bufferView": 13, "componentType": 5126, "count": 90, "type": "VEC3"}, {"bufferView": 14, "componentType": 5126, "count": 90, "type": "VEC2"}, {"bufferView": 15, "componentType": 5125, "count": 90, "type": "SCALAR"}, {"bufferView": 16, "componentType": 5126, "count": 192, "type": "VEC3", "min": [-0.5358266234397888, -0.5358266234397888, -0.16465921700000763], "max": [0.5358266234397888, 0.5358266234397888, 0.44058477878570557]}, {"bufferView": 17, "componentType": 5126, "count": 192, "type": "VEC3"}, {"bufferView": 18, "componentType": 5126, "count": 192, "type": "VEC2"}, {"bufferView": 19, "componentType": 5125, "count": 192, "type": "SCALAR"}], "bufferViews": [{"buffer": 0, "byteOffset": 0, "byteLength": 720, "target": 34962}, {"buffer": 0, "byteOffset": 720, "byteLength": 720, "target": 34962}, {"buffer": 0, "byteOffset": 1440, "byteLength": 480, "target": 34962}, {"buffer": 0, "byteOffset": 1920, "byteLength": 240, "target": 34963}, {"buffer": 0, "byteOffset": 2160, "byteLength": 1008, "target": 34962}, {"buffer": 0, "byteOffset": 3168, "byteLength": 1008, "target": 34962}, {"buffer": 0, "byteOffset": 4176, "byteLength": 672, "target": 34962}, {"buffer": 0, "byteOffset": 4848, "byteLength": 336, "target": 34963}, {"buffer": 0, "byteOffset": 5184, "byteLength": 1728, "target": 34962}, {"buffer": 0, "byteOffset": 6912, "byteLength": 1728, "target": 34962}, {"buffer": 0, "byteOffset": 8640, "byteLength": 1152, "target": 34962}, {"buffer": 0, "byteOffset": 9792, "byteLength": 576, "target": 34963}, {"buffer": 0, "byteOffset": 10368, "byteLength": 1080, "target": 34962}, {"buffer": 0, "byteOffset": 11448, "byteLength": 1080, "target": 34962}, {"buffer": 0, "byteOffset": 12528, "byteLength": 720, "target": 34962}, {"buffer": 0, "byteOffset": 13248, "byteLength": 360, "target": 34963}, {"buffer": 0, "byteOffset": 13608, "byteLength": 2304, "target": 34962}, {"buffer": 0, "byteOffset": 15912, "byteLength": 2304, "target": 34962}, {"buffer": 0, "byteOffset": 18216, "byteLength": 1536, "target": 34962}, {"buffer": 0, "byteOffset": 19752, "byteLength": 768, "target": 34963}], "buffers": [{"uri": "headcamera.bin", "byteLength": 20520}]}