{"asset": {"version": "2.0", "generator": "kartemu s1_gltf"}, "extensionsUsed": ["KHR_materials_unlit"], "scene": 0, "scenes": [{"nodes": [57]}], "nodes": [{"mesh": 0, "name": "lamp_red"}, {"mesh": 1, "name": "lamp"}, {"mesh": 2, "name": "sign03"}, {"mesh": 3, "name": "front_128"}, {"mesh": 4, "name": "lamp00"}, {"mesh": 5, "name": "flag01"}, {"mesh": 6, "name": "flag00"}, {"mesh": 7, "name": "sign_stick"}, {"mesh": 8, "name": "sign_ani"}, {"mesh": 9, "name": "stick"}, {"mesh": 10, "name": "ad_board_a"}, {"mesh": 11, "name": "fence00_e"}, {"mesh": 12, "name": "cliff_set"}, {"mesh": 13, "name": "waterdrop"}, {"mesh": 14, "name": "fountionwater_128"}, {"mesh": 15, "name": "ad_start"}, {"mesh": 16, "name": "sign15"}, {"mesh": 17, "name": "sign08"}, {"mesh": 18, "name": "stop"}, {"mesh": 19, "name": "cement_00"}, {"mesh": 20, "name": "handrail"}, {"mesh": 21, "name": "cement04"}, {"mesh": 22, "name": "cement05"}, {"mesh": 23, "name": "smallhouse_set"}, {"mesh": 24, "name": "v_tree_set"}, {"mesh": 25, "name": "tent_set"}, {"mesh": 26, "name": "bighouse_set"}, {"mesh": 27, "name": "sign10"}, {"mesh": 28, "name": "v_tree00_set"}, {"mesh": 29, "name": "s_tree_set"}, {"mesh": 30, "name": "flag"}, {"mesh": 31, "name": "sign12"}, {"mesh": 32, "name": "sign07"}, {"mesh": 33, "name": "ad_board_c"}, {"mesh": 34, "name": "ad_board_b"}, {"mesh": 35, "name": "v_tree01_set"}, {"mesh": 36, "name": "tree_re09"}, {"mesh": 37, "name": "v_back"}, {"mesh": 38, "name": "v_stick"}, {"mesh": 39, "name": "tilegrass_128_03"}, {"mesh": 40, "name": "v_brick"}, {"mesh": 41, "name": "fence11"}, {"mesh": 42, "name": "v_wall"}, {"mesh": 43, "name": "fence01"}, {"mesh": 44, "name": "cement_start"}, {"mesh": 45, "name": "fence12"}, {"mesh": 46, "name": "cement02_01"}, {"mesh": 47, "name": "cement01"}, {"mesh": 48, "name": "cement03"}, {"mesh": 49, "name": "sign14"}, {"mesh": 50, "name": "fountion00_128"}, {"mesh": 51, "name": "sign09"}, {"mesh": 52, "name": "transparency"}, {"mesh": 53, "name": "ad_fence_a"}, {"mesh": 54, "name": "ad_fence_b"}, {"mesh": 55, "name": "v_back00"}, {"mesh": 56, "name": "village_skyline01"}, {"rotation": [-0.7071067811865476, 0.0, 0.0, 0.7071067811865476], "children": [0, 1, 2, 3, 4, 5, 6, 7, 8, 9, 10, 11, 12, 13, 14, 15, 16, 17, 18, 19, 20, 21, 22, 23, 24, 25, 26, 27, 28, 29, 30, 31, 32, 33, 34, 35, 36, 37, 38, 39, 40, 41, 42, 43, 44, 45, 46, 47, 48, 49, 50, 51, 52, 53, 54, 55, 56], "name": "zup_root"}], "meshes": [{"primitives": [{"attributes": {"POSITION": 0, "NORMAL": 1, "TEXCOORD_0": 2}, "indices": 3, "material": 0, "mode": 4}]}, {"primitives": [{"attributes": {"POSITION": 4, "NORMAL": 5, "TEXCOORD_0": 6}, "indices": 7, "material": 1, "mode": 4}]}, {"primitives": [{"attributes": {"POSITION": 8, "NORMAL": 9, "TEXCOORD_0": 10}, "indices": 11, "material": 2, "mode": 4}]}, {"primitives": [{"attributes": {"POSITION": 12, "NORMAL": 13, "TEXCOORD_0": 14}, "indices": 15, "material": 3, "mode": 4}]}, {"primitives": [{"attributes": {"POSITION": 16, "NORMAL": 17, "TEXCOORD_0": 18}, "indices": 19, "material": 4, "mode": 4}]}, {"primitives": [{"attributes": {"POSITION": 20, "NORMAL": 21, "TEXCOORD_0": 22}, "indices": 23, "material": 5, "mode": 4}]}, {"primitives": [{"attributes": {"POSITION": 24, "NORMAL": 25, "TEXCOORD_0": 26}, "indices": 27, "material": 6, "mode": 4}]}, {"primitives": [{"attributes": {"POSITION": 28, "NORMAL": 29, "TEXCOORD_0": 30}, "indices": 31, "material": 7, "mode": 4}]}, {"primitives": [{"attributes": {"POSITION": 32, "NORMAL": 33, "TEXCOORD_0": 34}, "indices": 35, "material": 8, "mode": 4}]}, {"primitives": [{"attributes": {"POSITION": 36, "NORMAL": 37, "TEXCOORD_0": 38}, "indices": 39, "material": 9, "mode": 4}]}, {"primitives": [{"attributes": {"POSITION": 40, "NORMAL": 41, "TEXCOORD_0": 42}, "indices": 43, "material": 10, "mode": 4}]}, {"primitives": [{"attributes": {"POSITION": 44, "NORMAL": 45, "TEXCOORD_0": 46}, "indices": 47, "material": 11, "mode": 4}]}, {"primitives": [{"attributes": {"POSITION": 48, "NORMAL": 49, "TEXCOORD_0": 50}, "indices": 51, "material": 12, "mode": 4}]}, {"primitives": [{"attributes": {"POSITION": 52, "NORMAL": 53, "TEXCOORD_0": 54}, "indices": 55, "material": 13, "mode": 4}]}, {"primitives": [{"attributes": {"POSITION": 56, "NORMAL": 57, "TEXCOORD_0": 58}, "indices": 59, "material": 14, "mode": 4}]}, {"primitives": [{"attributes": {"POSITION": 60, "NORMAL": 61, "TEXCOORD_0": 62}, "indices": 63, "material": 15, "mode": 4}]}, {"primitives": [{"attributes": {"POSITION": 64, "NORMAL": 65, "TEXCOORD_0": 66}, "indices": 67, "material": 16, "mode": 4}]}, {"primitives": [{"attributes": {"POSITION": 68, "NORMAL": 69, "TEXCOORD_0": 70}, "indices": 71, "material": 17, "mode": 4}]}, {"primitives": [{"attributes": {"POSITION": 72, "NORMAL": 73, "TEXCOORD_0": 74}, "indices": 75, "material": 18, "mode": 4}]}, {"primitives": [{"attributes": {"POSITION": 76, "NORMAL": 77, "TEXCOORD_0": 78}, "indices": 79, "material": 19, "mode": 4}]}, {"primitives": [{"attributes": {"POSITION": 80, "NORMAL": 81, "TEXCOORD_0": 82}, "indices": 83, "material": 20, "mode": 4}]}, {"primitives": [{"attributes": {"POSITION": 84, "NORMAL": 85, "TEXCOORD_0": 86}, "indices": 87, "material": 21, "mode": 4}]}, {"primitives": [{"attributes": {"POSITION": 88, "NORMAL": 89, "TEXCOORD_0": 90}, "indices": 91, "material": 22, "mode": 4}]}, {"primitives": [{"attributes": {"POSITION": 92, "NORMAL": 93, "TEXCOORD_0": 94}, "indices": 95, "material": 23, "mode": 4}]}, {"primitives": [{"attributes": {"POSITION": 96, "NORMAL": 97, "TEXCOORD_0": 98}, "indices": 99, "material": 24, "mode": 4}]}, {"primitives": [{"attributes": {"POSITION": 100, "NORMAL": 101, "TEXCOORD_0": 102}, "indices": 103, "material": 25, "mode": 4}]}, {"primitives": [{"attributes": {"POSITION": 104, "NORMAL": 105, "TEXCOORD_0": 106}, "indices": 107, "material": 26, "mode": 4}]}, {"primitives": [{"attributes": {"POSITION": 108, "NORMAL": 109, "TEXCOORD_0": 110}, "indices": 111, "material": 27, "mode": 4}]}, {"primitives": [{"attributes": {"POSITION": 112, "NORMAL": 113, "TEXCOORD_0": 114}, "indices": 115, "material": 28, "mode": 4}]}, {"primitives": [{"attributes": {"POSITION": 116, "NORMAL": 117, "TEXCOORD_0": 118}, "indices": 119, "material": 29, "mode": 4}]}, {"primitives": [{"attributes": {"POSITION": 120, "NORMAL": 121, "TEXCOORD_0": 122}, "indices": 123, "material": 30, "mode": 4}]}, {"primitives": [{"attributes": {"POSITION": 124, "NORMAL": 125, "TEXCOORD_0": 126}, "indices": 127, "material": 31, "mode": 4}]}, {"primitives": [{"attributes": {"POSITION": 128, "NORMAL": 129, "TEXCOORD_0": 130}, "indices": 131, "material": 32, "mode": 4}]}, {"primitives": [{"attributes": {"POSITION": 132, "NORMAL": 133, "TEXCOORD_0": 134}, "indices": 135, "material": 33, "mode": 4}]}, {"primitives": [{"attributes": {"POSITION": 136, "NORMAL": 137, "TEXCOORD_0": 138}, "indices": 139, "material": 34, "mode": 4}]}, {"primitives": [{"attributes": {"POSITION": 140, "NORMAL": 141, "TEXCOORD_0": 142}, "indices": 143, "material": 35, "mode": 4}]}, {"primitives": [{"attributes": {"POSITION": 144, "NORMAL": 145, "TEXCOORD_0": 146}, "indices": 147, "material": 36, "mode": 4}]}, {"primitives": [{"attributes": {"POSITION": 148, "NORMAL": 149, "TEXCOORD_0": 150}, "indices": 151, "material": 37, "mode": 4}]}, {"primitives": [{"attributes": {"POSITION": 152, "NORMAL": 153, "TEXCOORD_0": 154}, "indices": 155, "material": 38, "mode": 4}]}, {"primitives": [{"attributes": {"POSITION": 156, "NORMAL": 157, "TEXCOORD_0": 158}, "indices": 159, "material": 39, "mode": 4}]}, {"primitives": [{"attributes": {"POSITION": 160, "NORMAL": 161, "TEXCOORD_0": 162}, "indices": 163, "material": 40, "mode": 4}]}, {"primitives": [{"attributes": {"POSITION": 164, "NORMAL": 165, "TEXCOORD_0": 166}, "indices": 167, "material": 41, "mode": 4}]}, {"primitives": [{"attributes": {"POSITION": 168, "NORMAL": 169, "TEXCOORD_0": 170}, "indices": 171, "material": 42, "mode": 4}]}, {"primitives": [{"attributes": {"POSITION": 172, "NORMAL": 173, "TEXCOORD_0": 174}, "indices": 175, "material": 43, "mode": 4}]}, {"primitives": [{"attributes": {"POSITION": 176, "NORMAL": 177, "TEXCOORD_0": 178}, "indices": 179, "material": 44, "mode": 4}]}, {"primitives": [{"attributes": {"POSITION": 180, "NORMAL": 181, "TEXCOORD_0": 182}, "indices": 183, "material": 45, "mode": 4}]}, {"primitives": [{"attributes": {"POSITION": 184, "NORMAL": 185, "TEXCOORD_0": 186}, "indices": 187, "material": 46, "mode": 4}]}, {"primitives": [{"attributes": {"POSITION": 188, "NORMAL": 189, "TEXCOORD_0": 190}, "indices": 191, "material": 47, "mode": 4}]}, {"primitives": [{"attributes": {"POSITION": 192, "NORMAL": 193, "TEXCOORD_0": 194}, "indices": 195, "material": 48, "mode": 4}]}, {"primitives": [{"attributes": {"POSITION": 196, "NORMAL": 197, "TEXCOORD_0": 198}, "indices": 199, "material": 49, "mode": 4}]}, {"primitives": [{"attributes": {"POSITION": 200, "NORMAL": 201, "TEXCOORD_0": 202}, "indices": 203, "material": 50, "mode": 4}]}, {"primitives": [{"attributes": {"POSITION": 204, "NORMAL": 205, "TEXCOORD_0": 206}, "indices": 207, "material": 51, "mode": 4}]}, {"primitives": [{"attributes": {"POSITION": 208, "NORMAL": 209, "TEXCOORD_0": 210}, "indices": 211, "material": 52, "mode": 4}]}, {"primitives": [{"attributes": {"POSITION": 212, "NORMAL": 213, "TEXCOORD_0": 214}, "indices": 215, "material": 53, "mode": 4}]}, {"primitives": [{"attributes": {"POSITION": 216, "NORMAL": 217, "TEXCOORD_0": 218}, "indices": 219, "material": 54, "mode": 4}]}, {"primitives": [{"attributes": {"POSITION": 220, "NORMAL": 221, "TEXCOORD_0": 222}, "indices": 223, "material": 55, "mode": 4}]}, {"primitives": [{"attributes": {"POSITION": 224, "NORMAL": 225, "TEXCOORD_0": 226}, "indices": 227, "material": 56, "mode": 4}]}], "materials": [{"name": "lamp_red", "doubleSided": false, "extensions": {"KHR_materials_unlit": {}}, "pbrMetallicRoughness": {"metallicFactor": 0.0, "roughnessFactor": 1.0, "baseColorTexture": {"index": 0}}}, {"name": "lamp", "doubleSided": true, "extensions": {"KHR_materials_unlit": {}}, "pbrMetallicRoughness": {"metallicFactor": 0.0, "roughnessFactor": 1.0, "baseColorTexture": {"index": 1}}}, {"name": "sign03", "doubleSided": true, "extensions": {"KHR_materials_unlit": {}}, "pbrMetallicRoughness": {"metallicFactor": 0.0, "roughnessFactor": 1.0, "baseColorTexture": {"index": 2}}}, {"name": "front_128", "doubleSided": false, "extensions": {"KHR_materials_unlit": {}}, "pbrMetallicRoughness": {"metallicFactor": 0.0, "roughnessFactor": 1.0, "baseColorTexture": {"index": 3}}}, {"name": "lamp00", "doubleSided": true, "extensions": {"KHR_materials_unlit": {}}, "pbrMetallicRoughness": {"metallicFactor": 0.0, "roughnessFactor": 1.0, "baseColorTexture": {"index": 4}}}, {"name": "flag01", "doubleSided": true, "alphaMode": "MASK", "alphaCutoff": 0.498, "extensions": {"KHR_materials_unlit": {}}, "pbrMetallicRoughness": {"metallicFactor": 0.0, "roughnessFactor": 1.0, "baseColorTexture": {"index": 5}}}, {"name": "flag00", "doubleSided": true, "alphaMode": "MASK", "alphaCutoff": 0.498, "extensions": {"KHR_materials_unlit": {}}, "pbrMetallicRoughness": {"metallicFactor": 0.0, "roughnessFactor": 1.0, "baseColorTexture": {"index": 6}}}, {"name": "sign_stick", "doubleSided": false, "extensions": {"KHR_materials_unlit": {}}, "pbrMetallicRoughness": {"metallicFactor": 0.0, "roughnessFactor": 1.0, "baseColorTexture": {"index": 7}}}, {"name": "sign_ani", "doubleSided": true, "extensions": {"KHR_materials_unlit": {}}, "pbrMetallicRoughness": {"metallicFactor": 0.0, "roughnessFactor": 1.0, "baseColorTexture": {"index": 8}}}, {"name": "stick", "doubleSided": true, "extensions": {"KHR_materials_unlit": {}}, "pbrMetallicRoughness": {"metallicFactor": 0.0, "roughnessFactor": 1.0, "baseColorTexture": {"index": 9}}}, {"name": "ad_board_a", "doubleSided": true, "extensions": {"KHR_materials_unlit": {}}, "pbrMetallicRoughness": {"metallicFactor": 0.0, "roughnessFactor": 1.0, "baseColorTexture": {"index": 10}}}, {"name": "fence00_e", "doubleSided": true, "alphaMode": "MASK", "alphaCutoff": 0.498, "extensions": {"KHR_materials_unlit": {}}, "pbrMetallicRoughness": {"metallicFactor": 0.0, "roughnessFactor": 1.0, "baseColorTexture": {"index": 11}}}, {"name": "cliff_set", "doubleSided": true, "extensions": {"KHR_materials_unlit": {}}, "pbrMetallicRoughness": {"metallicFactor": 0.0, "roughnessFactor": 1.0, "baseColorTexture": {"index": 12}}}, {"name": "waterdrop", "doubleSided": true, "alphaMode": "MASK", "alphaCutoff": 0.498, "extensions": {"KHR_materials_unlit": {}}, "pbrMetallicRoughness": {"metallicFactor": 0.0, "roughnessFactor": 1.0, "baseColorTexture": {"index": 13}}}, {"name": "fountionwater_128", "doubleSided": true, "extensions": {"KHR_materials_unlit": {}}, "pbrMetallicRoughness": {"metallicFactor": 0.0, "roughnessFactor": 1.0, "baseColorTexture": {"index": 14}}}, {"name": "ad_start", "doubleSided": true, "extensions": {"KHR_materials_unlit": {}}, "pbrMetallicRoughness": {"metallicFactor": 0.0, "roughnessFactor": 1.0, "baseColorTexture": {"index": 15}}}, {"name": "sign15", "doubleSided": true, "alphaMode": "MASK", "alphaCutoff": 0.498, "extensions": {"KHR_materials_unlit": {}}, "pbrMetallicRoughness": {"metallicFactor": 0.0, "roughnessFactor": 1.0, "baseColorTexture": {"index": 16}}}, {"name": "sign08", "doubleSided": true, "extensions": {"KHR_materials_unlit": {}}, "pbrMetallicRoughness": {"metallicFactor": 0.0, "roughnessFactor": 1.0, "baseColorTexture": {"index": 17}}}, {"name": "stop", "doubleSided": false, "extensions": {"KHR_materials_unlit": {}}, "pbrMetallicRoughness": {"metallicFactor": 0.0, "roughnessFactor": 1.0, "baseColorTexture": {"index": 18}}}, {"name": "cement_00", "doubleSided": false, "extensions": {"KHR_materials_unlit": {}}, "pbrMetallicRoughness": {"metallicFactor": 0.0, "roughnessFactor": 1.0, "baseColorTexture": {"index": 19}}}, {"name": "handrail", "doubleSided": false, "alphaMode": "MASK", "alphaCutoff": 0.0, "extensions": {"KHR_materials_unlit": {}}, "pbrMetallicRoughness": {"metallicFactor": 0.0, "roughnessFactor": 1.0, "baseColorTexture": {"index": 20}}}, {"name": "cement04", "doubleSided": false, "extensions": {"KHR_materials_unlit": {}}, "pbrMetallicRoughness": {"metallicFactor": 0.0, "roughnessFactor": 1.0, "baseColorTexture": {"index": 21}}}, {"name": "cement05", "doubleSided": true, "extensions": {"KHR_materials_unlit": {}}, "pbrMetallicRoughness": {"metallicFactor": 0.0, "roughnessFactor": 1.0, "baseColorTexture": {"index": 22}}}, {"name": "smallhouse_set", "doubleSided": true, "extensions": {"KHR_materials_unlit": {}}, "pbrMetallicRoughness": {"metallicFactor": 0.0, "roughnessFactor": 1.0, "baseColorTexture": {"index": 23}}}, {"name": "v_tree_set", "doubleSided": true, "alphaMode": "MASK", "alphaCutoff": 0.498, "extensions": {"KHR_materials_unlit": {}}, "pbrMetallicRoughness": {"metallicFactor": 0.0, "roughnessFactor": 1.0, "baseColorTexture": {"index": 24}}}, {"name": "tent_set", "doubleSided": false, "alphaMode": "MASK", "alphaCutoff": 0.498, "extensions": {"KHR_materials_unlit": {}}, "pbrMetallicRoughness": {"metallicFactor": 0.0, "roughnessFactor": 1.0, "baseColorTexture": {"index": 25}}}, {"name": "bighouse_set", "doubleSided": false, "extensions": {"KHR_materials_unlit": {}}, "pbrMetallicRoughness": {"metallicFactor": 0.0, "roughnessFactor": 1.0, "baseColorTexture": {"index": 26}}}, {"name": "sign10", "doubleSided": true, "alphaMode": "MASK", "alphaCutoff": 0.0, "extensions": {"KHR_materials_unlit": {}}, "pbrMetallicRoughness": {"metallicFactor": 0.0, "roughnessFactor": 1.0, "baseColorTexture": {"index": 27}}}, {"name": "v_tree00_set", "doubleSided": true, "alphaMode": "MASK", "alphaCutoff": 0.498, "extensions": {"KHR_materials_unlit": {}}, "pbrMetallicRoughness": {"metallicFactor": 0.0, "roughnessFactor": 1.0, "baseColorTexture": {"index": 28}}}, {"name": "s_tree_set", "doubleSided": true, "alphaMode": "MASK", "alphaCutoff": 0.0, "extensions": {"KHR_materials_unlit": {}}, "pbrMetallicRoughness": {"metallicFactor": 0.0, "roughnessFactor": 1.0, "baseColorTexture": {"index": 29}}}, {"name": "flag", "doubleSided": true, "alphaMode": "MASK", "alphaCutoff": 0.498, "extensions": {"KHR_materials_unlit": {}}, "pbrMetallicRoughness": {"metallicFactor": 0.0, "roughnessFactor": 1.0, "baseColorTexture": {"index": 30}}}, {"name": "sign12", "doubleSided": true, "alphaMode": "MASK", "alphaCutoff": 0.498, "extensions": {"KHR_materials_unlit": {}}, "pbrMetallicRoughness": {"metallicFactor": 0.0, "roughnessFactor": 1.0, "baseColorTexture": {"index": 31}}}, {"name": "sign07", "doubleSided": true, "extensions": {"KHR_materials_unlit": {}}, "pbrMetallicRoughness": {"metallicFactor": 0.0, "roughnessFactor": 1.0, "baseColorTexture": {"index": 32}}}, {"name": "ad_board_c", "doubleSided": true, "extensions": {"KHR_materials_unlit": {}}, "pbrMetallicRoughness": {"metallicFactor": 0.0, "roughnessFactor": 1.0, "baseColorTexture": {"index": 33}}}, {"name": "ad_board_b", "doubleSided": true, "extensions": {"KHR_materials_unlit": {}}, "pbrMetallicRoughness": {"metallicFactor": 0.0, "roughnessFactor": 1.0, "baseColorTexture": {"index": 34}}}, {"name": "v_tree01_set", "doubleSided": true, "alphaMode": "MASK", "alphaCutoff": 0.498, "extensions": {"KHR_materials_unlit": {}}, "pbrMetallicRoughness": {"metallicFactor": 0.0, "roughnessFactor": 1.0, "baseColorTexture": {"index": 35}}}, {"name": "tree_re09", "doubleSided": true, "alphaMode": "MASK", "alphaCutoff": 0.0, "extensions": {"KHR_materials_unlit": {}}, "pbrMetallicRoughness": {"metallicFactor": 0.0, "roughnessFactor": 1.0, "baseColorTexture": {"index": 36}}}, {"name": "v_back", "doubleSided": true, "alphaMode": "MASK", "alphaCutoff": 0.498, "extensions": {"KHR_materials_unlit": {}}, "pbrMetallicRoughness": {"metallicFactor": 0.0, "roughnessFactor": 1.0, "baseColorTexture": {"index": 37}}}, {"name": "v_stick", "doubleSided": false, "extensions": {"KHR_materials_unlit": {}}, "pbrMetallicRoughness": {"metallicFactor": 0.0, "roughnessFactor": 1.0, "baseColorTexture": {"index": 38}}}, {"name": "tilegrass_128_03", "doubleSided": false, "extensions": {"KHR_materials_unlit": {}}, "pbrMetallicRoughness": {"metallicFactor": 0.0, "roughnessFactor": 1.0, "baseColorTexture": {"index": 39}}}, {"name": "v_brick", "doubleSided": true, "extensions": {"KHR_materials_unlit": {}}, "pbrMetallicRoughness": {"metallicFactor": 0.0, "roughnessFactor": 1.0, "baseColorTexture": {"index": 40}}}, {"name": "fence11", "doubleSided": true, "alphaMode": "MASK", "alphaCutoff": 0.0, "extensions": {"KHR_materials_unlit": {}}, "pbrMetallicRoughness": {"metallicFactor": 0.0, "roughnessFactor": 1.0, "baseColorTexture": {"index": 41}}}, {"name": "v_wall", "doubleSided": false, "extensions": {"KHR_materials_unlit": {}}, "pbrMetallicRoughness": {"metallicFactor": 0.0, "roughnessFactor": 1.0, "baseColorTexture": {"index": 42}}}, {"name": "fence01", "doubleSided": true, "alphaMode": "MASK", "alphaCutoff": 0.498, "extensions": {"KHR_materials_unlit": {}}, "pbrMetallicRoughness": {"metallicFactor": 0.0, "roughnessFactor": 1.0, "baseColorTexture": {"index": 43}}}, {"name": "cement_start", "doubleSided": true, "extensions": {"KHR_materials_unlit": {}}, "pbrMetallicRoughness": {"metallicFactor": 0.0, "roughnessFactor": 1.0, "baseColorTexture": {"index": 44}}}, {"name": "fence12", "doubleSided": false, "extensions": {"KHR_materials_unlit": {}}, "pbrMetallicRoughness": {"metallicFactor": 0.0, "roughnessFactor": 1.0, "baseColorTexture": {"index": 45}}}, {"name": "cement02_01", "doubleSided": true, "extensions": {"KHR_materials_unlit": {}}, "pbrMetallicRoughness": {"metallicFactor": 0.0, "roughnessFactor": 1.0, "baseColorTexture": {"index": 46}}}, {"name": "cement01", "doubleSided": true, "extensions": {"KHR_materials_unlit": {}}, "pbrMetallicRoughness": {"metallicFactor": 0.0, "roughnessFactor": 1.0, "baseColorTexture": {"index": 47}}}, {"name": "cement03", "doubleSided": true, "extensions": {"KHR_materials_unlit": {}}, "pbrMetallicRoughness": {"metallicFactor": 0.0, "roughnessFactor": 1.0, "baseColorTexture": {"index": 48}}}, {"name": "sign14", "doubleSided": true, "alphaMode": "MASK", "alphaCutoff": 0.498, "extensions": {"KHR_materials_unlit": {}}, "pbrMetallicRoughness": {"metallicFactor": 0.0, "roughnessFactor": 1.0, "baseColorTexture": {"index": 49}}}, {"name": "fountion00_128", "doubleSided": false, "extensions": {"KHR_materials_unlit": {}}, "pbrMetallicRoughness": {"metallicFactor": 0.0, "roughnessFactor": 1.0, "baseColorTexture": {"index": 50}}}, {"name": "sign09", "doubleSided": true, "alphaMode": "MASK", "alphaCutoff": 0.498, "extensions": {"KHR_materials_unlit": {}}, "pbrMetallicRoughness": {"metallicFactor": 0.0, "roughnessFactor": 1.0, "baseColorTexture": {"index": 51}}}, {"name": "transparency", "doubleSided": false, "extensions": {"KHR_materials_unlit": {}}, "pbrMetallicRoughness": {"metallicFactor": 0.0, "roughnessFactor": 1.0, "baseColorTexture": {"index": 52}}}, {"name": "ad_fence_a", "doubleSided": true, "extensions": {"KHR_materials_unlit": {}}, "pbrMetallicRoughness": {"metallicFactor": 0.0, "roughnessFactor": 1.0, "baseColorTexture": {"index": 53}}}, {"name": "ad_fence_b", "doubleSided": true, "extensions": {"KHR_materials_unlit": {}}, "pbrMetallicRoughness": {"metallicFactor": 0.0, "roughnessFactor": 1.0, "baseColorTexture": {"index": 54}}}, {"name": "v_back00", "doubleSided": true, "alphaMode": "MASK", "alphaCutoff": 0.498, "extensions": {"KHR_materials_unlit": {}}, "pbrMetallicRoughness": {"metallicFactor": 0.0, "roughnessFactor": 1.0, "baseColorTexture": {"index": 55}}}, {"name": "village_skyline01", "doubleSided": false, "alphaMode": "MASK", "alphaCutoff": 0.498, "extensions": {"KHR_materials_unlit": {}}, "pbrMetallicRoughness": {"metallicFactor": 0.0, "roughnessFactor": 1.0, "baseColorTexture": {"index": 56}}}], "textures": [{"source": 0}, {"source": 1}, {"source": 2}, {"source": 3}, {"source": 4}, {"source": 5}, {"source": 6}, {"source": 7}, {"source": 8}, {"source": 9}, {"source": 10}, {"source": 11}, {"source": 12}, {"source": 13}, {"source": 14}, {"source": 15}, {"source": 16}, {"source": 17}, {"source": 18}, {"source": 19}, {"source": 20}, {"source": 21}, {"source": 22}, {"source": 23}, {"source": 24}, {"source": 25}, {"source": 26}, {"source": 27}, {"source": 28}, {"source": 29}, {"source": 30}, {"source": 31}, {"source": 32}, {"source": 33}, {"source": 34}, {"source": 35}, {"source": 36}, {"source": 37}, {"source": 38}, {"source": 39}, {"source": 40}, {"source": 41}, {"source": 42}, {"source": 43}, {"source": 44}, {"source": 45}, {"source": 46}, {"source": 47}, {"source": 48}, {"source": 49}, {"source": 50}, {"source": 51}, {"source": 52}, {"source": 53}, {"source": 54}, {"source": 55}, {"source": 56}], "images": [{"uri": "track_textures/lamp_red.png"}, {"uri": "track_textures/lamp.png"}, {"uri": "track_textures/sign03.png"}, {"uri": "track_textures/front_128.png"}, {"uri": "track_textures/lamp00.png"}, {"uri": "track_textures/flag01.png"}, {"uri": "track_textures/flag00.png"}, {"uri": "track_textures/sign_stick.png"}, {"uri": "track_textures/sign_ani.png"}, {"uri": "track_textures/stick.png"}, {"uri": "track_textures/ad_board_a.png"}, {"uri": "track_textures/fence00_e.png"}, {"uri": "track_textures/cliff_set.png"}, {"uri": "track_textures/waterdrop.png"}, {"uri": "track_textures/fountionwater_128.png"}, {"uri": "track_textures/ad_start.png"}, {"uri": "track_textures/sign15.png"}, {"uri": "track_textures/sign08.png"}, {"uri": "track_textures/stop.png"}, {"uri": "track_textures/cement_00.png"}, {"uri": "track_textures/handrail.png"}, {"uri": "track_textures/cement04.png"}, {"uri": "track_textures/cement05.png"}, {"uri": "track_textures/smallhouse_set.png"}, {"uri": "track_textures/v_tree_set.png"}, {"uri": "track_textures/tent_set.png"}, {"uri": "track_textures/bighouse_set.png"}, {"uri": "track_textures/sign10.png"}, {"uri": "track_textures/v_tree00_set.png"}, {"uri": "track_textures/s_tree_set.png"}, {"uri": "track_textures/flag.png"}, {"uri": "track_textures/sign12.png"}, {"uri": "track_textures/sign07.png"}, {"uri": "track_textures/ad_board_c.png"}, {"uri": "track_textures/ad_board_b.png"}, {"uri": "track_textures/v_tree01_set.png"}, {"uri": "track_textures/tree_re09.png"}, {"uri": "track_textures/v_back.png"}, {"uri": "track_textures/v_stick.png"}, {"uri": "track_textures/tilegrass_128_03.png"}, {"uri": "track_textures/v_brick.png"}, {"uri": "track_textures/fence11.png"}, {"uri": "track_textures/v_wall.png"}, {"uri": "track_textures/fence01.png"}, {"uri": "track_textures/cement_start.png"}, {"uri": "track_textures/fence12.png"}, {"uri": "track_textures/cement02_01.png"}, {"uri": "track_textures/cement01.png"}, {"uri": "track_textures/cement03.png"}, {"uri": "track_textures/sign14.png"}, {"uri": "track_textures/fountion00_128.png"}, {"uri": "track_textures/sign09.png"}, {"uri": "track_textures/transparency.png"}, {"uri": "track_textures/ad_fence_a.png"}, {"uri": "track_textures/ad_fence_b.png"}, {"uri": "track_textures/v_back00.png"}, {"uri": "track_textures/village_skyline01.png"}], "accessors": [{"bufferView": 1, "componentType": 5126, "count": 945, "type": "VEC3", "min": [224.83384704589844, 963.09765625, 27.648984909057617], "max": [409.56463623046875, 1119.8782958984375, 60.16349792480469]}, {"bufferView": 2, "componentType": 5126, "count": 945, "type": "VEC3"}, {"bufferView": 3, "componentType": 5126, "count": 945, "type": "VEC2"}, {"bufferView": 4, "componentType": 5125, "count": 945, "type": "SCALAR"}, {"bufferView": 6, "componentType": 5126, "count": 14175, "type": "VEC3", "min": [118.93540954589844, 126.68905639648438, 27.671707153320312], "max": [726.6389770507812, 959.7415161132812, 81.81339263916016]}, {"bufferView": 7, "componentType": 5126, "count": 14175, "type": "VEC3"}, {"bufferView": 8, "componentType": 5126, "count": 14175, "type": "VEC2"}, {"bufferView": 9, "componentType": 5125, "count": 14175, "type": "SCALAR"}, {"bufferView": 11, "componentType": 5126, "count": 1200, "type": "VEC3", "min": [158.73484802246094, 283.1727600097656, 26.680253982543945], "max": [563.1089477539062, 1256.2410888671875, 67.89971923828125]}, {"bufferView": 12, "componentType": 5126, "count": 1200, "type": "VEC3"}, {"bufferView": 13, "componentType": 5126, "count": 1200, "type": "VEC2"}, {"bufferView": 14, "componentType": 5125, "count": 1200, "type": "SCALAR"}, {"bufferView": 16, "componentType": 5126, "count": 186, "type": "VEC3", "min": [269.96319580078125, 794.7147827148438, 26.644969940185547], "max": [282.6837463378906, 844.735595703125, 49.32852554321289]}, {"bufferView": 17, "componentType": 5126, "count": 186, "type": "VEC3"}, {"bufferView": 18, "componentType": 5126, "count": 186, "type": "VEC2"}, {"bufferView": 19, "componentType": 5125, "count": 186, "type": "SCALAR"}, {"bufferView": 21, "componentType": 5126, "count": 7446, "type": "VEC3", "min": [600.2235107421875, 264.5227966308594, 48.04291915893555], "max": [885.0560913085938, 1369.7408447265625, 96.4630126953125]}, {"bufferView": 22, "componentType": 5126, "count": 7446, "type": "VEC3"}, {"bufferView": 23, "componentType": 5126, "count": 7446, "type": "VEC2"}, {"bufferView": 24, "componentType": 5125, "count": 7446, "type": "SCALAR"}, {"bufferView": 26, "componentType": 5126, "count": 348, "type": "VEC3", "min": [599.612548828125, 265.07196044921875, 52.54242706298828], "max": [884.2628173828125, 1252.0673828125, 94.51107025146484]}, {"bufferView": 27, "componentType": 5126, "count": 348, "type": "VEC3"}, {"bufferView": 28, "componentType": 5126, "count": 348, "type": "VEC2"}, {"bufferView": 29, "componentType": 5125, "count": 348, "type": "SCALAR"}, {"bufferView": 31, "componentType": 5126, "count": 348, "type": "VEC3", "min": [600.6979370117188, 260.8465881347656, 52.54241943359375], "max": [888.7551879882812, 1256.4266357421875, 94.51107025146484]}, {"bufferView": 32, "componentType": 5126, "count": 348, "type": "VEC3"}, {"bufferView": 33, "componentType": 5126, "count": 348, "type": "VEC2"}, {"bufferView": 34, "componentType": 5125, "count": 348, "type": "SCALAR"}, {"bufferView": 36, "componentType": 5126, "count": 630, "type": "VEC3", "min": [87.75981140136719, 325.1457214355469, 27.77493667602539], "max": [158.8630828857422, 826.0777587890625, 31.592227935791016]}, {"bufferView": 37, "componentType": 5126, "count": 630, "type": "VEC3"}, {"bufferView": 38, "componentType": 5126, "count": 630, "type": "VEC2"}, {"bufferView": 39, "componentType": 5125, "count": 630, "type": "SCALAR"}, {"bufferView": 41, "componentType": 5126, "count": 42, "type": "VEC3", "min": [87.9794692993164, 325.45013427734375, 28.116918563842773], "max": [158.7091522216797, 825.8916625976562, 31.22878074645996]}, {"bufferView": 42, "componentType": 5126, "count": 42, "type": "VEC3"}, {"bufferView": 43, "componentType": 5126, "count": 42, "type": "VEC2"}, {"bufferView": 44, "componentType": 5125, "count": 42, "type": "SCALAR"}, {"bufferView": 46, "componentType": 5126, "count": 612, "type": "VEC3", "min": [125.18743133544922, 199.25486755371094, 25.745670318603516], "max": [885.9024658203125, 945.4838256835938, 95.73987579345703]}, {"bufferView": 47, "componentType": 5126, "count": 612, "type": "VEC3"}, {"bufferView": 48, "componentType": 5126, "count": 612, "type": "VEC2"}, {"bufferView": 49, "componentType": 5125, "count": 612, "type": "SCALAR"}, {"bufferView": 51, "componentType": 5126, "count": 150, "type": "VEC3", "min": [78.6785888671875, 205.73904418945312, 25.226579666137695], "max": [882.0596923828125, 1206.4627685546875, 94.71790313720703]}, {"bufferView": 52, "componentType": 5126, "count": 150, "type": "VEC3"}, {"bufferView": 53, "componentType": 5126, "count": 150, "type": "VEC2"}, {"bufferView": 54, "componentType": 5125, "count": 150, "type": "SCALAR"}, {"bufferView": 56, "componentType": 5126, "count": 144, "type": "VEC3", "min": [60.454681396484375, 292.5248107910156, 35.65160369873047], "max": [477.6190185546875, 1081.5400390625, 58.61852264404297]}, {"bufferView": 57, "componentType": 5126, "count": 144, "type": "VEC3"}, {"bufferView": 58, "componentType": 5126, "count": 144, "type": "VEC2"}, {"bufferView": 59, "componentType": 5125, "count": 144, "type": "SCALAR"}, {"bufferView": 61, "componentType": 5126, "count": 285, "type": "VEC3", "min": [57.406585693359375, 288.703369140625, 27.521881103515625], "max": [481.5971374511719, 1085.285400390625, 56.595542907714844]}, {"bufferView": 62, "componentType": 5126, "count": 285, "type": "VEC3"}, {"bufferView": 63, "componentType": 5126, "count": 285, "type": "VEC2"}, {"bufferView": 64, "componentType": 5125, "count": 285, "type": "SCALAR"}, {"bufferView": 66, "componentType": 5126, "count": 72, "type": "VEC3", "min": [177.2328643798828, 979.6512451171875, 29.808006286621094], "max": [209.97537231445312, 1008.7634887695312, 32.618682861328125]}, {"bufferView": 67, "componentType": 5126, "count": 72, "type": "VEC3"}, {"bufferView": 68, "componentType": 5126, "count": 72, "type": "VEC2"}, {"bufferView": 69, "componentType": 5125, "count": 72, "type": "SCALAR"}, {"bufferView": 71, "componentType": 5126, "count": 216, "type": "VEC3", "min": [180.83511352539062, 982.8435668945312, 30.297243118286133], "max": [206.58482360839844, 1005.5489501953125, 39.450191497802734]}, {"bufferView": 72, "componentType": 5126, "count": 216, "type": "VEC3"}, {"bufferView": 73, "componentType": 5126, "count": 216, "type": "VEC2"}, {"bufferView": 74, "componentType": 5125, "count": 216, "type": "SCALAR"}, {"bufferView": 76, "componentType": 5126, "count": 84, "type": "VEC3", "min": [131.05804443359375, 471.9161376953125, 38.75239944458008], "max": [879.5363159179688, 816.3890991210938, 86.111328125]}, {"bufferView": 77, "componentType": 5126, "count": 84, "type": "VEC3"}, {"bufferView": 78, "componentType": 5126, "count": 84, "type": "VEC2"}, {"bufferView": 79, "componentType": 5125, "count": 84, "type": "SCALAR"}, {"bufferView": 81, "componentType": 5126, "count": 6, "type": "VEC3", "min": [872.3648071289062, 684.3377685546875, 87.12419891357422], "max": [878.263916015625, 684.4426879882812, 93.02424621582031]}, {"bufferView": 82, "componentType": 5126, "count": 6, "type": "VEC3"}, {"bufferView": 83, "componentType": 5126, "count": 6, "type": "VEC2"}, {"bufferView": 84, "componentType": 5125, "count": 6, "type": "SCALAR"}, {"bufferView": 86, "componentType": 5126, "count": 138, "type": "VEC3", "min": [253.47962951660156, 123.86697387695312, 24.840700149536133], "max": [859.7257690429688, 983.27099609375, 92.68443298339844]}, {"bufferView": 87, "componentType": 5126, "count": 138, "type": "VEC3"}, {"bufferView": 88, "componentType": 5126, "count": 138, "type": "VEC2"}, {"bufferView": 89, "componentType": 5125, "count": 138, "type": "SCALAR"}, {"bufferView": 91, "componentType": 5126, "count": 1050, "type": "VEC3", "min": [645.0267944335938, 233.5755157470703, 46.77668380737305], "max": [881.34423828125, 1293.858642578125, 85.3369369506836]}, {"bufferView": 92, "componentType": 5126, "count": 1050, "type": "VEC3"}, {"bufferView": 93, "componentType": 5126, "count": 1050, "type": "VEC2"}, {"bufferView": 94, "componentType": 5125, "count": 1050, "type": "SCALAR"}, {"bufferView": 96, "componentType": 5126, "count": 975, "type": "VEC3", "min": [88.49620819091797, -111.33008575439453, 26.849836349487305], "max": [1126.4368896484375, 1600.7806396484375, 83.86138153076172]}, {"bufferView": 97, "componentType": 5126, "count": 975, "type": "VEC3"}, {"bufferView": 98, "componentType": 5126, "count": 975, "type": "VEC2"}, {"bufferView": 99, "componentType": 5125, "count": 975, "type": "SCALAR"}, {"bufferView": 101, "componentType": 5126, "count": 696, "type": "VEC3", "min": [119.520263671875, -111.33145904541016, 27.849836349487305], "max": [1032.8814697265625, 1600.781982421875, 88.74069213867188]}, {"bufferView": 102, "componentType": 5126, "count": 696, "type": "VEC3"}, {"bufferView": 103, "componentType": 5126, "count": 696, "type": "VEC2"}, {"bufferView": 104, "componentType": 5125, "count": 696, "type": "SCALAR"}, {"bufferView": 106, "componentType": 5126, "count": 1074, "type": "VEC3", "min": [595.1758422851562, -111.33329772949219, 42.62921905517578], "max": [1126.450927734375, 1600.783935546875, 85.74073791503906]}, {"bufferView": 107, "componentType": 5126, "count": 1074, "type": "VEC3"}, {"bufferView": 108, "componentType": 5126, "count": 1074, "type": "VEC2"}, {"bufferView": 109, "componentType": 5125, "count": 1074, "type": "SCALAR"}, {"bufferView": 111, "componentType": 5126, "count": 129, "type": "VEC3", "min": [595.9322509765625, 246.96681213378906, 46.74983596801758], "max": [867.0596313476562, 1272.0025634765625, 81.84980010986328]}, {"bufferView": 112, "componentType": 5126, "count": 129, "type": "VEC3"}, {"bufferView": 113, "componentType": 5126, "count": 129, "type": "VEC2"}, {"bufferView": 114, "componentType": 5125, "count": 129, "type": "SCALAR"}, {"bufferView": 116, "componentType": 5126, "count": 4926, "type": "VEC3", "min": [83.2171859741211, 81.62618255615234, 27.099458694458008], "max": [540.7000732421875, 1322.0010986328125, 81.19487762451172]}, {"bufferView": 117, "componentType": 5126, "count": 4926, "type": "VEC3"}, {"bufferView": 118, "componentType": 5126, "count": 4926, "type": "VEC2"}, {"bufferView": 119, "componentType": 5125, "count": 4926, "type": "SCALAR"}, {"bufferView": 121, "componentType": 5126, "count": 2916, "type": "VEC3", "min": [43.90465545654297, 85.2505874633789, 24.479156494140625], "max": [914.0556030273438, 1322.5196533203125, 95.85899353027344]}, {"bufferView": 122, "componentType": 5126, "count": 2916, "type": "VEC3"}, {"bufferView": 123, "componentType": 5126, "count": 2916, "type": "VEC2"}, {"bufferView": 124, "componentType": 5125, "count": 2916, "type": "SCALAR"}, {"bufferView": 126, "componentType": 5126, "count": 984, "type": "VEC3", "min": [51.24076843261719, 473.6384582519531, 31.797760009765625], "max": [522.3550415039062, 1106.4007568359375, 54.6207275390625]}, {"bufferView": 127, "componentType": 5126, "count": 984, "type": "VEC3"}, {"bufferView": 128, "componentType": 5126, "count": 984, "type": "VEC2"}, {"bufferView": 129, "componentType": 5125, "count": 984, "type": "SCALAR"}, {"bufferView": 131, "componentType": 5126, "count": 4320, "type": "VEC3", "min": [51.041107177734375, 186.9271240234375, 27.04693031311035], "max": [920.5375366210938, 1316.598876953125, 98.44120025634766]}, {"bufferView": 132, "componentType": 5126, "count": 4320, "type": "VEC3"}, {"bufferView": 133, "componentType": 5126, "count": 4320, "type": "VEC2"}, {"bufferView": 134, "componentType": 5125, "count": 4320, "type": "SCALAR"}, {"bufferView": 136, "componentType": 5126, "count": 18, "type": "VEC3", "min": [120.6471939086914, 610.1212768554688, 34.221370697021484], "max": [127.95953369140625, 646.151123046875, 40.596656799316406]}, {"bufferView": 137, "componentType": 5126, "count": 18, "type": "VEC3"}, {"bufferView": 138, "componentType": 5126, "count": 18, "type": "VEC2"}, {"bufferView": 139, "componentType": 5125, "count": 18, "type": "SCALAR"}, {"bufferView": 141, "componentType": 5126, "count": 624, "type": "VEC3", "min": [123.41495513916016, 69.56904602050781, 27.217159271240234], "max": [544.6907958984375, 1185.10595703125, 88.03946685791016]}, {"bufferView": 142, "componentType": 5126, "count": 624, "type": "VEC3"}, {"bufferView": 143, "componentType": 5126, "count": 624, "type": "VEC2"}, {"bufferView": 144, "componentType": 5125, "count": 624, "type": "SCALAR"}, {"bufferView": 146, "componentType": 5126, "count": 144, "type": "VEC3", "min": [124.86202239990234, 609.6785278320312, 27.74863052368164], "max": [162.69720458984375, 757.9132080078125, 29.390663146972656]}, {"bufferView": 147, "componentType": 5126, "count": 144, "type": "VEC3"}, {"bufferView": 148, "componentType": 5126, "count": 144, "type": "VEC2"}, {"bufferView": 149, "componentType": 5125, "count": 144, "type": "SCALAR"}, {"bufferView": 151, "componentType": 5126, "count": 108, "type": "VEC3", "min": [126.85523223876953, 592.9503784179688, 34.1141471862793], "max": [160.3176727294922, 738.0863037109375, 37.74076843261719]}, {"bufferView": 152, "componentType": 5126, "count": 108, "type": "VEC3"}, {"bufferView": 153, "componentType": 5126, "count": 108, "type": "VEC2"}, {"bufferView": 154, "componentType": 5125, "count": 108, "type": "SCALAR"}, {"bufferView": 156, "componentType": 5126, "count": 18, "type": "VEC3", "min": [160.33905029296875, 673.7045288085938, 29.899131774902344], "max": [166.857666015625, 708.1455688476562, 35.59516143798828]}, {"bufferView": 157, "componentType": 5126, "count": 18, "type": "VEC3"}, {"bufferView": 158, "componentType": 5126, "count": 18, "type": "VEC2"}, {"bufferView": 159, "componentType": 5125, "count": 18, "type": "SCALAR"}, {"bufferView": 161, "componentType": 5126, "count": 36, "type": "VEC3", "min": [126.81640625, 776.9236450195312, 24.840702056884766], "max": [493.0989685058594, 1228.59521484375, 58.0725212097168]}, {"bufferView": 162, "componentType": 5126, "count": 36, "type": "VEC3"}, {"bufferView": 163, "componentType": 5126, "count": 36, "type": "VEC2"}, {"bufferView": 164, "componentType": 5125, "count": 36, "type": "SCALAR"}, {"bufferView": 166, "componentType": 5126, "count": 90, "type": "VEC3", "min": [78.66417694091797, 176.59356689453125, 25.226579666137695], "max": [307.9498291015625, 376.98370361328125, 79.81954956054688]}, {"bufferView": 167, "componentType": 5126, "count": 90, "type": "VEC3"}, {"bufferView": 168, "componentType": 5126, "count": 90, "type": "VEC2"}, {"bufferView": 169, "componentType": 5125, "count": 90, "type": "SCALAR"}, {"bufferView": 171, "componentType": 5126, "count": 90, "type": "VEC3", "min": [225.96170043945312, 1092.306396484375, 27.44534683227539], "max": [266.35028076171875, 1125.3546142578125, 39.45663070678711]}, {"bufferView": 172, "componentType": 5126, "count": 90, "type": "VEC3"}, {"bufferView": 173, "componentType": 5126, "count": 90, "type": "VEC2"}, {"bufferView": 174, "componentType": 5125, "count": 90, "type": "SCALAR"}, {"bufferView": 176, "componentType": 5126, "count": 972, "type": "VEC3", "min": [-7.663741111755371, 49.6174201965332, 11.280656814575195], "max": [1239.292236328125, 1386.315185546875, 106.82852172851562]}, {"bufferView": 177, "componentType": 5126, "count": 972, "type": "VEC3"}, {"bufferView": 178, "componentType": 5126, "count": 972, "type": "VEC2"}, {"bufferView": 179, "componentType": 5125, "count": 972, "type": "SCALAR"}, {"bufferView": 181, "componentType": 5126, "count": 18, "type": "VEC3", "min": [295.5229187011719, 1031.4478759765625, 27.253990173339844], "max": [317.60064697265625, 1053.4854736328125, 49.995426177978516]}, {"bufferView": 182, "componentType": 5126, "count": 18, "type": "VEC3"}, {"bufferView": 183, "componentType": 5126, "count": 18, "type": "VEC2"}, {"bufferView": 184, "componentType": 5125, "count": 18, "type": "SCALAR"}, {"bufferView": 186, "componentType": 5126, "count": 144, "type": "VEC3", "min": [0.14039336144924164, 195.6144561767578, 27.849836349487305], "max": [288.58636474609375, 1022.40673828125, 61.81401824951172]}, {"bufferView": 187, "componentType": 5126, "count": 144, "type": "VEC3"}, {"bufferView": 188, "componentType": 5126, "count": 144, "type": "VEC2"}, {"bufferView": 189, "componentType": 5125, "count": 144, "type": "SCALAR"}, {"bufferView": 191, "componentType": 5126, "count": 144, "type": "VEC3", "min": [857.7215576171875, 146.07789611816406, 27.488489151000977], "max": [873.9214477539062, 1326.1485595703125, 83.04472351074219]}, {"bufferView": 192, "componentType": 5126, "count": 144, "type": "VEC3"}, {"bufferView": 193, "componentType": 5126, "count": 144, "type": "VEC2"}, {"bufferView": 194, "componentType": 5125, "count": 144, "type": "SCALAR"}, {"bufferView": 196, "componentType": 5126, "count": 1050, "type": "VEC3", "min": [12.07431697845459, 45.24863052368164, 2.8498706817626953], "max": [1032.947509765625, 1394.191162109375, 70.84983825683594]}, {"bufferView": 197, "componentType": 5126, "count": 1050, "type": "VEC3"}, {"bufferView": 198, "componentType": 5126, "count": 1050, "type": "VEC2"}, {"bufferView": 199, "componentType": 5125, "count": 1050, "type": "SCALAR"}, {"bufferView": 201, "componentType": 5126, "count": 150, "type": "VEC3", "min": [259.0432434082031, 262.6920471191406, 27.849836349487305], "max": [596.361572265625, 1256.4925537109375, 70.12187957763672]}, {"bufferView": 202, "componentType": 5126, "count": 150, "type": "VEC3"}, {"bufferView": 203, "componentType": 5126, "count": 150, "type": "VEC2"}, {"bufferView": 204, "componentType": 5125, "count": 150, "type": "SCALAR"}, {"bufferView": 206, "componentType": 5126, "count": 222, "type": "VEC3", "min": [93.97384643554688, 208.22933959960938, 27.849836349487305], "max": [525.9531860351562, 1161.1910400390625, 71.84983825683594]}, {"bufferView": 207, "componentType": 5126, "count": 222, "type": "VEC3"}, {"bufferView": 208, "componentType": 5126, "count": 222, "type": "VEC2"}, {"bufferView": 209, "componentType": 5125, "count": 222, "type": "SCALAR"}, {"bufferView": 211, "componentType": 5126, "count": 306, "type": "VEC3", "min": [301.2818908691406, 171.2485809326172, 27.744503021240234], "max": [479.9532165527344, 1161.2225341796875, 71.84984588623047]}, {"bufferView": 212, "componentType": 5126, "count": 306, "type": "VEC3"}, {"bufferView": 213, "componentType": 5126, "count": 306, "type": "VEC2"}, {"bufferView": 214, "componentType": 5125, "count": 306, "type": "SCALAR"}, {"bufferView": 216, "componentType": 5126, "count": 234, "type": "VEC3", "min": [87.59093475341797, 125.24858856201172, 27.849836349487305], "max": [593.8092651367188, 1294.191162109375, 71.84983825683594]}, {"bufferView": 217, "componentType": 5126, "count": 234, "type": "VEC3"}, {"bufferView": 218, "componentType": 5126, "count": 234, "type": "VEC2"}, {"bufferView": 219, "componentType": 5125, "count": 234, "type": "SCALAR"}, {"bufferView": 221, "componentType": 5126, "count": 6, "type": "VEC3", "min": [128.63230895996094, 520.7224731445312, 26.849836349487305], "max": [158.6408233642578, 525.7703247070312, 26.849836349487305]}, {"bufferView": 222, "componentType": 5126, "count": 6, "type": "VEC3"}, {"bufferView": 223, "componentType": 5126, "count": 6, "type": "VEC2"}, {"bufferView": 224, "componentType": 5125, "count": 6, "type": "SCALAR"}, {"bufferView": 226, "componentType": 5126, "count": 168, "type": "VEC3", "min": [310.7355651855469, 125.24858856201172, 27.849836349487305], "max": [563.1431884765625, 1294.191162109375, 71.84984588623047]}, {"bufferView": 227, "componentType": 5126, "count": 168, "type": "VEC3"}, {"bufferView": 228, "componentType": 5126, "count": 168, "type": "VEC2"}, {"bufferView": 229, "componentType": 5125, "count": 168, "type": "SCALAR"}, {"bufferView": 231, "componentType": 5126, "count": 1302, "type": "VEC3", "min": [80.52021026611328, 179.61705017089844, 26.849836349487305], "max": [1126.4368896484375, 1004.3225708007812, 70.84983825683594]}, {"bufferView": 232, "componentType": 5126, "count": 1302, "type": "VEC3"}, {"bufferView": 233, "componentType": 5126, "count": 1302, "type": "VEC2"}, {"bufferView": 234, "componentType": 5125, "count": 1302, "type": "SCALAR"}, {"bufferView": 236, "componentType": 5126, "count": 504, "type": "VEC3", "min": [20.591167449951172, 353.8065490722656, 27.500774383544922], "max": [535.9502563476562, 1088.8018798828125, 27.863798141479492]}, {"bufferView": 237, "componentType": 5126, "count": 504, "type": "VEC3"}, {"bufferView": 238, "componentType": 5126, "count": 504, "type": "VEC2"}, {"bufferView": 239, "componentType": 5125, "count": 504, "type": "SCALAR"}, {"bufferView": 241, "componentType": 5126, "count": 2220, "type": "VEC3", "min": [220.0432586669922, 125.24858856201172, 26.849836349487305], "max": [1126.356201171875, 1294.191162109375, 70.84983825683594]}, {"bufferView": 242, "componentType": 5126, "count": 2220, "type": "VEC3"}, {"bufferView": 243, "componentType": 5126, "count": 2220, "type": "VEC2"}, {"bufferView": 244, "componentType": 5125, "count": 2220, "type": "SCALAR"}, {"bufferView": 246, "componentType": 5126, "count": 36, "type": "VEC3", "min": [694.4323120117188, 255.9232177734375, 45.58548355102539], "max": [856.0442504882812, 1260.967041015625, 93.94734191894531]}, {"bufferView": 247, "componentType": 5126, "count": 36, "type": "VEC3"}, {"bufferView": 248, "componentType": 5126, "count": 36, "type": "VEC2"}, {"bufferView": 249, "componentType": 5125, "count": 36, "type": "SCALAR"}, {"bufferView": 251, "componentType": 5126, "count": 120, "type": "VEC3", "min": [174.97259521484375, 977.925537109375, 27.508258819580078], "max": [212.51719665527344, 1010.447509765625, 37.017860412597656]}, {"bufferView": 252, "componentType": 5126, "count": 120, "type": "VEC3"}, {"bufferView": 253, "componentType": 5126, "count": 120, "type": "VEC2"}, {"bufferView": 254, "componentType": 5125, "count": 120, "type": "SCALAR"}, {"bufferView": 256, "componentType": 5126, "count": 6, "type": "VEC3", "min": [159.4952392578125, 726.6132202148438, 28.998973846435547], "max": [165.99069213867188, 726.6200561523438, 34.695003509521484]}, {"bufferView": 257, "componentType": 5126, "count": 6, "type": "VEC3"}, {"bufferView": 258, "componentType": 5126, "count": 6, "type": "VEC2"}, {"bufferView": 259, "componentType": 5125, "count": 6, "type": "SCALAR"}, {"bufferView": 261, "componentType": 5126, "count": 12, "type": "VEC3", "min": [637.4913940429688, 1252.52392578125, 46.690006256103516], "max": [707.053955078125, 1299.472412109375, 76.41035461425781]}, {"bufferView": 262, "componentType": 5126, "count": 12, "type": "VEC3"}, {"bufferView": 263, "componentType": 5126, "count": 12, "type": "VEC2"}, {"bufferView": 264, "componentType": 5125, "count": 12, "type": "SCALAR"}, {"bufferView": 266, "componentType": 5126, "count": 162, "type": "VEC3", "min": [159.64083862304688, 270.93817138671875, 27.850006103515625], "max": [593.7777709960938, 1248.191162109375, 71.85000610351562]}, {"bufferView": 267, "componentType": 5126, "count": 162, "type": "VEC3"}, {"bufferView": 268, "componentType": 5126, "count": 162, "type": "VEC2"}, {"bufferView": 269, "componentType": 5125, "count": 162, "type": "SCALAR"}, {"bufferView": 271, "componentType": 5126, "count": 42, "type": "VEC3", "min": [127.64083862304688, 224.93817138671875, 27.850006103515625], "max": [595.7741088867188, 844.3204956054688, 71.85000610351562]}, {"bufferView": 272, "componentType": 5126, "count": 42, "type": "VEC3"}, {"bufferView": 273, "componentType": 5126, "count": 42, "type": "VEC2"}, {"bufferView": 274, "componentType": 5125, "count": 42, "type": "SCALAR"}, {"bufferView": 276, "componentType": 5126, "count": 24, "type": "VEC3", "min": [-36.53499221801758, 108.80674743652344, 49.406402587890625], "max": [0.3817422389984131, 697.2453002929688, 83.8464126586914]}, {"bufferView": 277, "componentType": 5126, "count": 24, "type": "VEC3"}, {"bufferView": 278, "componentType": 5126, "count": 24, "type": "VEC2"}, {"bufferView": 279, "componentType": 5125, "count": 24, "type": "SCALAR"}, {"bufferView": 281, "componentType": 5126, "count": 24, "type": "VEC3", "min": [-23.321279525756836, 49.01127243041992, 26.271568298339844], "max": [75.79715728759766, 488.07904052734375, 101.0391616821289]}, {"bufferView": 282, "componentType": 5126, "count": 24, "type": "VEC3"}, {"bufferView": 283, "componentType": 5126, "count": 24, "type": "VEC2"}, {"bufferView": 284, "componentType": 5125, "count": 24, "type": "SCALAR"}], "bufferViews": [{"buffer": 0, "byteOffset": 0, "byteLength": 4, "target": null}, {"buffer": 0, "byteOffset": 4, "byteLength": 11340, "target": 34962}, {"buffer": 0, "byteOffset": 11344, "byteLength": 11340, "target": 34962}, {"buffer": 0, "byteOffset": 22684, "byteLength": 7560, "target": 34962}, {"buffer": 0, "byteOffset": 30244, "byteLength": 3780, "target": 34963}, {"buffer": 0, "byteOffset": 34024, "byteLength": 4, "target": null}, {"buffer": 0, "byteOffset": 34028, "byteLength": 170100, "target": 34962}, {"buffer": 0, "byteOffset": 204128, "byteLength": 170100, "target": 34962}, {"buffer": 0, "byteOffset": 374228, "byteLength": 113400, "target": 34962}, {"buffer": 0, "byteOffset": 487628, "byteLength": 56700, "target": 34963}, {"buffer": 0, "byteOffset": 544328, "byteLength": 4, "target": null}, {"buffer": 0, "byteOffset": 544332, "byteLength": 14400, "target": 34962}, {"buffer": 0, "byteOffset": 558732, "byteLength": 14400, "target": 34962}, {"buffer": 0, "byteOffset": 573132, "byteLength": 9600, "target": 34962}, {"buffer": 0, "byteOffset": 582732, "byteLength": 4800, "target": 34963}, {"buffer": 0, "byteOffset": 587532, "byteLength": 4, "target": null}, {"buffer": 0, "byteOffset": 587536, "byteLength": 2232, "target": 34962}, {"buffer": 0, "byteOffset": 589768, "byteLength": 2232, "target": 34962}, {"buffer": 0, "byteOffset": 592000, "byteLength": 1488, "target": 34962}, {"buffer": 0, "byteOffset": 593488, "byteLength": 744, "target": 34963}, {"buffer": 0, "byteOffset": 594232, "byteLength": 4, "target": null}, {"buffer": 0, "byteOffset": 594236, "byteLength": 89352, "target": 34962}, {"buffer": 0, "byteOffset": 683588, "byteLength": 89352, "target": 34962}, {"buffer": 0, "byteOffset": 772940, "byteLength": 59568, "target": 34962}, {"buffer": 0, "byteOffset": 832508, "byteLength": 29784, "target": 34963}, {"buffer": 0, "byteOffset": 862292, "byteLength": 4, "target": null}, {"buffer": 0, "byteOffset": 862296, "byteLength": 4176, "target": 34962}, {"buffer": 0, "byteOffset": 866472, "byteLength": 4176, "target": 34962}, {"buffer": 0, "byteOffset": 870648, "byteLength": 2784, "target": 34962}, {"buffer": 0, "byteOffset": 873432, "byteLength": 1392, "target": 34963}, {"buffer": 0, "byteOffset": 874824, "byteLength": 4, "target": null}, {"buffer": 0, "byteOffset": 874828, "byteLength": 4176, "target": 34962}, {"buffer": 0, "byteOffset": 879004, "byteLength": 4176, "target": 34962}, {"buffer": 0, "byteOffset": 883180, "byteLength": 2784, "target": 34962}, {"buffer": 0, "byteOffset": 885964, "byteLength": 1392, "target": 34963}, {"buffer": 0, "byteOffset": 887356, "byteLength": 4, "target": null}, {"buffer": 0, "byteOffset": 887360, "byteLength": 7560, "target": 34962}, {"buffer": 0, "byteOffset": 894920, "byteLength": 7560, "target": 34962}, {"buffer": 0, "byteOffset": 902480, "byteLength": 5040, "target": 34962}, {"buffer": 0, "byteOffset": 907520, "byteLength": 2520, "target": 34963}, {"buffer": 0, "byteOffset": 910040, "byteLength": 4, "target": null}, {"buffer": 0, "byteOffset": 910044, "byteLength": 504, "target": 34962}, {"buffer": 0, "byteOffset": 910548, "byteLength": 504, "target": 34962}, {"buffer": 0, "byteOffset": 911052, "byteLength": 336, "target": 34962}, {"buffer": 0, "byteOffset": 911388, "byteLength": 168, "target": 34963}, {"buffer": 0, "byteOffset": 911556, "byteLength": 4, "target": null}, {"buffer": 0, "byteOffset": 911560, "byteLength": 7344, "target": 34962}, {"buffer": 0, "byteOffset": 918904, "byteLength": 7344, "target": 34962}, {"buffer": 0, "byteOffset": 926248, "byteLength": 4896, "target": 34962}, {"buffer": 0, "byteOffset": 931144, "byteLength": 2448, "target": 34963}, {"buffer": 0, "byteOffset": 933592, "byteLength": 4, "target": null}, {"buffer": 0, "byteOffset": 933596, "byteLength": 1800, "target": 34962}, {"buffer": 0, "byteOffset": 935396, "byteLength": 1800, "target": 34962}, {"buffer": 0, "byteOffset": 937196, "byteLength": 1200, "target": 34962}, {"buffer": 0, "byteOffset": 938396, "byteLength": 600, "target": 34963}, {"buffer": 0, "byteOffset": 938996, "byteLength": 4, "target": null}, {"buffer": 0, "byteOffset": 939000, "byteLength": 1728, "target": 34962}, {"buffer": 0, "byteOffset": 940728, "byteLength": 1728, "target": 34962}, {"buffer": 0, "byteOffset": 942456, "byteLength": 1152, "target": 34962}, {"buffer": 0, "byteOffset": 943608, "byteLength": 576, "target": 34963}, {"buffer": 0, "byteOffset": 944184, "byteLength": 4, "target": null}, {"buffer": 0, "byteOffset": 944188, "byteLength": 3420, "target": 34962}, {"buffer": 0, "byteOffset": 947608, "byteLength": 3420, "target": 34962}, {"buffer": 0, "byteOffset": 951028, "byteLength": 2280, "target": 34962}, {"buffer": 0, "byteOffset": 953308, "byteLength": 1140, "target": 34963}, {"buffer": 0, "byteOffset": 954448, "byteLength": 4, "target": null}, {"buffer": 0, "byteOffset": 954452, "byteLength": 864, "target": 34962}, {"buffer": 0, "byteOffset": 955316, "byteLength": 864, "target": 34962}, {"buffer": 0, "byteOffset": 956180, "byteLength": 576, "target": 34962}, {"buffer": 0, "byteOffset": 956756, "byteLength": 288, "target": 34963}, {"buffer": 0, "byteOffset": 957044, "byteLength": 4, "target": null}, {"buffer": 0, "byteOffset": 957048, "byteLength": 2592, "target": 34962}, {"buffer": 0, "byteOffset": 959640, "byteLength": 2592, "target": 34962}, {"buffer": 0, "byteOffset": 962232, "byteLength": 1728, "target": 34962}, {"buffer": 0, "byteOffset": 963960, "byteLength": 864, "target": 34963}, {"buffer": 0, "byteOffset": 964824, "byteLength": 4, "target": null}, {"buffer": 0, "byteOffset": 964828, "byteLength": 1008, "target": 34962}, {"buffer": 0, "byteOffset": 965836, "byteLength": 1008, "target": 34962}, {"buffer": 0, "byteOffset": 966844, "byteLength": 672, "target": 34962}, {"buffer": 0, "byteOffset": 967516, "byteLength": 336, "target": 34963}, {"buffer": 0, "byteOffset": 967852, "byteLength": 4, "target": null}, {"buffer": 0, "byteOffset": 967856, "byteLength": 72, "target": 34962}, {"buffer": 0, "byteOffset": 967928, "byteLength": 72, "target": 34962}, {"buffer": 0, "byteOffset": 968000, "byteLength": 48, "target": 34962}, {"buffer": 0, "byteOffset": 968048, "byteLength": 24, "target": 34963}, {"buffer": 0, "byteOffset": 968072, "byteLength": 4, "target": null}, {"buffer": 0, "byteOffset": 968076, "byteLength": 1656, "target": 34962}, {"buffer": 0, "byteOffset": 969732, "byteLength": 1656, "target": 34962}, {"buffer": 0, "byteOffset": 971388, "byteLength": 1104, "target": 34962}, {"buffer": 0, "byteOffset": 972492, "byteLength": 552, "target": 34963}, {"buffer": 0, "byteOffset": 973044, "byteLength": 4, "target": null}, {"buffer": 0, "byteOffset": 973048, "byteLength": 12600, "target": 34962}, {"buffer": 0, "byteOffset": 985648, "byteLength": 12600, "target": 34962}, {"buffer": 0, "byteOffset": 998248, "byteLength": 8400, "target": 34962}, {"buffer": 0, "byteOffset": 1006648, "byteLength": 4200, "target": 34963}, {"buffer": 0, "byteOffset": 1010848, "byteLength": 4, "target": null}, {"buffer": 0, "byteOffset": 1010852, "byteLength": 11700, "target": 34962}, {"buffer": 0, "byteOffset": 1022552, "byteLength": 11700, "target": 34962}, {"buffer": 0, "byteOffset": 1034252, "byteLength": 7800, "target": 34962}, {"buffer": 0, "byteOffset": 1042052, "byteLength": 3900, "target": 34963}, {"buffer": 0, "byteOffset": 1045952, "byteLength": 4, "target": null}, {"buffer": 0, "byteOffset": 1045956, "byteLength": 8352, "target": 34962}, {"buffer": 0, "byteOffset": 1054308, "byteLength": 8352, "target": 34962}, {"buffer": 0, "byteOffset": 1062660, "byteLength": 5568, "target": 34962}, {"buffer": 0, "byteOffset": 1068228, "byteLength": 2784, "target": 34963}, {"buffer": 0, "byteOffset": 1071012, "byteLength": 4, "target": null}, {"buffer": 0, "byteOffset": 1071016, "byteLength": 12888, "target": 34962}, {"buffer": 0, "byteOffset": 1083904, "byteLength": 12888, "target": 34962}, {"buffer": 0, "byteOffset": 1096792, "byteLength": 8592, "target": 34962}, {"buffer": 0, "byteOffset": 1105384, "byteLength": 4296, "target": 34963}, {"buffer": 0, "byteOffset": 1109680, "byteLength": 4, "target": null}, {"buffer": 0, "byteOffset": 1109684, "byteLength": 1548, "target": 34962}, {"buffer": 0, "byteOffset": 1111232, "byteLength": 1548, "target": 34962}, {"buffer": 0, "byteOffset": 1112780, "byteLength": 1032, "target": 34962}, {"buffer": 0, "byteOffset": 1113812, "byteLength": 516, "target": 34963}, {"buffer": 0, "byteOffset": 1114328, "byteLength": 4, "target": null}, {"buffer": 0, "byteOffset": 1114332, "byteLength": 59112, "target": 34962}, {"buffer": 0, "byteOffset": 1173444, "byteLength": 59112, "target": 34962}, {"buffer": 0, "byteOffset": 1232556, "byteLength": 39408, "target": 34962}, {"buffer": 0, "byteOffset": 1271964, "byteLength": 19704, "target": 34963}, {"buffer": 0, "byteOffset": 1291668, "byteLength": 4, "target": null}, {"buffer": 0, "byteOffset": 1291672, "byteLength": 34992, "target": 34962}, {"buffer": 0, "byteOffset": 1326664, "byteLength": 34992, "target": 34962}, {"buffer": 0, "byteOffset": 1361656, "byteLength": 23328, "target": 34962}, {"buffer": 0, "byteOffset": 1384984, "byteLength": 11664, "target": 34963}, {"buffer": 0, "byteOffset": 1396648, "byteLength": 4, "target": null}, {"buffer": 0, "byteOffset": 1396652, "byteLength": 11808, "target": 34962}, {"buffer": 0, "byteOffset": 1408460, "byteLength": 11808, "target": 34962}, {"buffer": 0, "byteOffset": 1420268, "byteLength": 7872, "target": 34962}, {"buffer": 0, "byteOffset": 1428140, "byteLength": 3936, "target": 34963}, {"buffer": 0, "byteOffset": 1432076, "byteLength": 4, "target": null}, {"buffer": 0, "byteOffset": 1432080, "byteLength": 51840, "target": 34962}, {"buffer": 0, "byteOffset": 1483920, "byteLength": 51840, "target": 34962}, {"buffer": 0, "byteOffset": 1535760, "byteLength": 34560, "target": 34962}, {"buffer": 0, "byteOffset": 1570320, "byteLength": 17280, "target": 34963}, {"buffer": 0, "byteOffset": 1587600, "byteLength": 4, "target": null}, {"buffer": 0, "byteOffset": 1587604, "byteLength": 216, "target": 34962}, {"buffer": 0, "byteOffset": 1587820, "byteLength": 216, "target": 34962}, {"buffer": 0, "byteOffset": 1588036, "byteLength": 144, "target": 34962}, {"buffer": 0, "byteOffset": 1588180, "byteLength": 72, "target": 34963}, {"buffer": 0, "byteOffset": 1588252, "byteLength": 4, "target": null}, {"buffer": 0, "byteOffset": 1588256, "byteLength": 7488, "target": 34962}, {"buffer": 0, "byteOffset": 1595744, "byteLength": 7488, "target": 34962}, {"buffer": 0, "byteOffset": 1603232, "byteLength": 4992, "target": 34962}, {"buffer": 0, "byteOffset": 1608224, "byteLength": 2496, "target": 34963}, {"buffer": 0, "byteOffset": 1610720, "byteLength": 4, "target": null}, {"buffer": 0, "byteOffset": 1610724, "byteLength": 1728, "target": 34962}, {"buffer": 0, "byteOffset": 1612452, "byteLength": 1728, "target": 34962}, {"buffer": 0, "byteOffset": 1614180, "byteLength": 1152, "target": 34962}, {"buffer": 0, "byteOffset": 1615332, "byteLength": 576, "target": 34963}, {"buffer": 0, "byteOffset": 1615908, "byteLength": 4, "target": null}, {"buffer": 0, "byteOffset": 1615912, "byteLength": 1296, "target": 34962}, {"buffer": 0, "byteOffset": 1617208, "byteLength": 1296, "target": 34962}, {"buffer": 0, "byteOffset": 1618504, "byteLength": 864, "target": 34962}, {"buffer": 0, "byteOffset": 1619368, "byteLength": 432, "target": 34963}, {"buffer": 0, "byteOffset": 1619800, "byteLength": 4, "target": null}, {"buffer": 0, "byteOffset": 1619804, "byteLength": 216, "target": 34962}, {"buffer": 0, "byteOffset": 1620020, "byteLength": 216, "target": 34962}, {"buffer": 0, "byteOffset": 1620236, "byteLength": 144, "target": 34962}, {"buffer": 0, "byteOffset": 1620380, "byteLength": 72, "target": 34963}, {"buffer": 0, "byteOffset": 1620452, "byteLength": 4, "target": null}, {"buffer": 0, "byteOffset": 1620456, "byteLength": 432, "target": 34962}, {"buffer": 0, "byteOffset": 1620888, "byteLength": 432, "target": 34962}, {"buffer": 0, "byteOffset": 1621320, "byteLength": 288, "target": 34962}, {"buffer": 0, "byteOffset": 1621608, "byteLength": 144, "target": 34963}, {"buffer": 0, "byteOffset": 1621752, "byteLength": 4, "target": null}, {"buffer": 0, "byteOffset": 1621756, "byteLength": 1080, "target": 34962}, {"buffer": 0, "byteOffset": 1622836, "byteLength": 1080, "target": 34962}, {"buffer": 0, "byteOffset": 1623916, "byteLength": 720, "target": 34962}, {"buffer": 0, "byteOffset": 1624636, "byteLength": 360, "target": 34963}, {"buffer": 0, "byteOffset": 1624996, "byteLength": 4, "target": null}, {"buffer": 0, "byteOffset": 1625000, "byteLength": 1080, "target": 34962}, {"buffer": 0, "byteOffset": 1626080, "byteLength": 1080, "target": 34962}, {"buffer": 0, "byteOffset": 1627160, "byteLength": 720, "target": 34962}, {"buffer": 0, "byteOffset": 1627880, "byteLength": 360, "target": 34963}, {"buffer": 0, "byteOffset": 1628240, "byteLength": 4, "target": null}, {"buffer": 0, "byteOffset": 1628244, "byteLength": 11664, "target": 34962}, {"buffer": 0, "byteOffset": 1639908, "byteLength": 11664, "target": 34962}, {"buffer": 0, "byteOffset": 1651572, "byteLength": 7776, "target": 34962}, {"buffer": 0, "byteOffset": 1659348, "byteLength": 3888, "target": 34963}, {"buffer": 0, "byteOffset": 1663236, "byteLength": 4, "target": null}, {"buffer": 0, "byteOffset": 1663240, "byteLength": 216, "target": 34962}, {"buffer": 0, "byteOffset": 1663456, "byteLength": 216, "target": 34962}, {"buffer": 0, "byteOffset": 1663672, "byteLength": 144, "target": 34962}, {"buffer": 0, "byteOffset": 1663816, "byteLength": 72, "target": 34963}, {"buffer": 0, "byteOffset": 1663888, "byteLength": 4, "target": null}, {"buffer": 0, "byteOffset": 1663892, "byteLength": 1728, "target": 34962}, {"buffer": 0, "byteOffset": 1665620, "byteLength": 1728, "target": 34962}, {"buffer": 0, "byteOffset": 1667348, "byteLength": 1152, "target": 34962}, {"buffer": 0, "byteOffset": 1668500, "byteLength": 576, "target": 34963}, {"buffer": 0, "byteOffset": 1669076, "byteLength": 4, "target": null}, {"buffer": 0, "byteOffset": 1669080, "byteLength": 1728, "target": 34962}, {"buffer": 0, "byteOffset": 1670808, "byteLength": 1728, "target": 34962}, {"buffer": 0, "byteOffset": 1672536, "byteLength": 1152, "target": 34962}, {"buffer": 0, "byteOffset": 1673688, "byteLength": 576, "target": 34963}, {"buffer": 0, "byteOffset": 1674264, "byteLength": 4, "target": null}, {"buffer": 0, "byteOffset": 1674268, "byteLength": 12600, "target": 34962}, {"buffer": 0, "byteOffset": 1686868, "byteLength": 12600, "target": 34962}, {"buffer": 0, "byteOffset": 1699468, "byteLength": 8400, "target": 34962}, {"buffer": 0, "byteOffset": 1707868, "byteLength": 4200, "target": 34963}, {"buffer": 0, "byteOffset": 1712068, "byteLength": 4, "target": null}, {"buffer": 0, "byteOffset": 1712072, "byteLength": 1800, "target": 34962}, {"buffer": 0, "byteOffset": 1713872, "byteLength": 1800, "target": 34962}, {"buffer": 0, "byteOffset": 1715672, "byteLength": 1200, "target": 34962}, {"buffer": 0, "byteOffset": 1716872, "byteLength": 600, "target": 34963}, {"buffer": 0, "byteOffset": 1717472, "byteLength": 4, "target": null}, {"buffer": 0, "byteOffset": 1717476, "byteLength": 2664, "target": 34962}, {"buffer": 0, "byteOffset": 1720140, "byteLength": 2664, "target": 34962}, {"buffer": 0, "byteOffset": 1722804, "byteLength": 1776, "target": 34962}, {"buffer": 0, "byteOffset": 1724580, "byteLength": 888, "target": 34963}, {"buffer": 0, "byteOffset": 1725468, "byteLength": 4, "target": null}, {"buffer": 0, "byteOffset": 1725472, "byteLength": 3672, "target": 34962}, {"buffer": 0, "byteOffset": 1729144, "byteLength": 3672, "target": 34962}, {"buffer": 0, "byteOffset": 1732816, "byteLength": 2448, "target": 34962}, {"buffer": 0, "byteOffset": 1735264, "byteLength": 1224, "target": 34963}, {"buffer": 0, "byteOffset": 1736488, "byteLength": 4, "target": null}, {"buffer": 0, "byteOffset": 1736492, "byteLength": 2808, "target": 34962}, {"buffer": 0, "byteOffset": 1739300, "byteLength": 2808, "target": 34962}, {"buffer": 0, "byteOffset": 1742108, "byteLength": 1872, "target": 34962}, {"buffer": 0, "byteOffset": 1743980, "byteLength": 936, "target": 34963}, {"buffer": 0, "byteOffset": 1744916, "byteLength": 4, "target": null}, {"buffer": 0, "byteOffset": 1744920, "byteLength": 72, "target": 34962}, {"buffer": 0, "byteOffset": 1744992, "byteLength": 72, "target": 34962}, {"buffer": 0, "byteOffset": 1745064, "byteLength": 48, "target": 34962}, {"buffer": 0, "byteOffset": 1745112, "byteLength": 24, "target": 34963}, {"buffer": 0, "byteOffset": 1745136, "byteLength": 4, "target": null}, {"buffer": 0, "byteOffset": 1745140, "byteLength": 2016, "target": 34962}, {"buffer": 0, "byteOffset": 1747156, "byteLength": 2016, "target": 34962}, {"buffer": 0, "byteOffset": 1749172, "byteLength": 1344, "target": 34962}, {"buffer": 0, "byteOffset": 1750516, "byteLength": 672, "target": 34963}, {"buffer": 0, "byteOffset": 1751188, "byteLength": 4, "target": null}, {"buffer": 0, "byteOffset": 1751192, "byteLength": 15624, "target": 34962}, {"buffer": 0, "byteOffset": 1766816, "byteLength": 15624, "target": 34962}, {"buffer": 0, "byteOffset": 1782440, "byteLength": 10416, "target": 34962}, {"buffer": 0, "byteOffset": 1792856, "byteLength": 5208, "target": 34963}, {"buffer": 0, "byteOffset": 1798064, "byteLength": 4, "target": null}, {"buffer": 0, "byteOffset": 1798068, "byteLength": 6048, "target": 34962}, {"buffer": 0, "byteOffset": 1804116, "byteLength": 6048, "target": 34962}, {"buffer": 0, "byteOffset": 1810164, "byteLength": 4032, "target": 34962}, {"buffer": 0, "byteOffset": 1814196, "byteLength": 2016, "target": 34963}, {"buffer": 0, "byteOffset": 1816212, "byteLength": 4, "target": null}, {"buffer": 0, "byteOffset": 1816216, "byteLength": 26640, "target": 34962}, {"buffer": 0, "byteOffset": 1842856, "byteLength": 26640, "target": 34962}, {"buffer": 0, "byteOffset": 1869496, "byteLength": 17760, "target": 34962}, {"buffer": 0, "byteOffset": 1887256, "byteLength": 8880, "target": 34963}, {"buffer": 0, "byteOffset": 1896136, "byteLength": 4, "target": null}, {"buffer": 0, "byteOffset": 1896140, "byteLength": 432, "target": 34962}, {"buffer": 0, "byteOffset": 1896572, "byteLength": 432, "target": 34962}, {"buffer": 0, "byteOffset": 1897004, "byteLength": 288, "target": 34962}, {"buffer": 0, "byteOffset": 1897292, "byteLength": 144, "target": 34963}, {"buffer": 0, "byteOffset": 1897436, "byteLength": 4, "target": null}, {"buffer": 0, "byteOffset": 1897440, "byteLength": 1440, "target": 34962}, {"buffer": 0, "byteOffset": 1898880, "byteLength": 1440, "target": 34962}, {"buffer": 0, "byteOffset": 1900320, "byteLength": 960, "target": 34962}, {"buffer": 0, "byteOffset": 1901280, "byteLength": 480, "target": 34963}, {"buffer": 0, "byteOffset": 1901760, "byteLength": 4, "target": null}, {"buffer": 0, "byteOffset": 1901764, "byteLength": 72, "target": 34962}, {"buffer": 0, "byteOffset": 1901836, "byteLength": 72, "target": 34962}, {"buffer": 0, "byteOffset": 1901908, "byteLength": 48, "target": 34962}, {"buffer": 0, "byteOffset": 1901956, "byteLength": 24, "target": 34963}, {"buffer": 0, "byteOffset": 1901980, "byteLength": 4, "target": null}, {"buffer": 0, "byteOffset": 1901984, "byteLength": 144, "target": 34962}, {"buffer": 0, "byteOffset": 1902128, "byteLength": 144, "target": 34962}, {"buffer": 0, "byteOffset": 1902272, "byteLength": 96, "target": 34962}, {"buffer": 0, "byteOffset": 1902368, "byteLength": 48, "target": 34963}, {"buffer": 0, "byteOffset": 1902416, "byteLength": 4, "target": null}, {"buffer": 0, "byteOffset": 1902420, "byteLength": 1944, "target": 34962}, {"buffer": 0, "byteOffset": 1904364, "byteLength": 1944, "target": 34962}, {"buffer": 0, "byteOffset": 1906308, "byteLength": 1296, "target": 34962}, {"buffer": 0, "byteOffset": 1907604, "byteLength": 648, "target": 34963}, {"buffer": 0, "byteOffset": 1908252, "byteLength": 4, "target": null}, {"buffer": 0, "byteOffset": 1908256, "byteLength": 504, "target": 34962}, {"buffer": 0, "byteOffset": 1908760, "byteLength": 504, "target": 34962}, {"buffer": 0, "byteOffset": 1909264, "byteLength": 336, "target": 34962}, {"buffer": 0, "byteOffset": 1909600, "byteLength": 168, "target": 34963}, {"buffer": 0, "byteOffset": 1909768, "byteLength": 4, "target": null}, {"buffer": 0, "byteOffset": 1909772, "byteLength": 288, "target": 34962}, {"buffer": 0, "byteOffset": 1910060, "byteLength": 288, "target": 34962}, {"buffer": 0, "byteOffset": 1910348, "byteLength": 192, "target": 34962}, {"buffer": 0, "byteOffset": 1910540, "byteLength": 96, "target": 34963}, {"buffer": 0, "byteOffset": 1910636, "byteLength": 4, "target": null}, {"buffer": 0, "byteOffset": 1910640, "byteLength": 288, "target": 34962}, {"buffer": 0, "byteOffset": 1910928, "byteLength": 288, "target": 34962}, {"buffer": 0, "byteOffset": 1911216, "byteLength": 192, "target": 34962}, {"buffer": 0, "byteOffset": 1911408, "byteLength": 96, "target": 34963}], "buffers": [{"uri": "track.bin", "byteLength": 1911504}]}