{"asset": {"version": "2.0", "generator": "kartemu kart_gltf"}, "extensionsUsed": ["KHR_materials_unlit"], "scene": 0, "scenes": [{"nodes": [14]}], "nodes": [{"name": "ReKart", "matrix": [1.0, 0.0, 0.0, 0.0, 0.0, 1.0, 0.0, 0.0, 0.0, 0.0, 1.0, 0.0, 0.0, 0.0, 0.0, 1.0], "children": [1, 2, 4, 6, 8, 10, 12, 13]}, {"name": "seat", "matrix": [1.0, 0.0, 0.0, 0.0, 0.0, 1.0, 0.0, 0.0, 0.0, 0.0, 1.0, 0.0, 0.0, 0.0, 0.0, 1.0], "mesh": 0}, {"name": "handle", "matrix": [1.0, 0.0, 0.0, 0.0, 0.0, 0.7660444974899292, -0.6427875757217407, 0.0, 0.0, 0.6427875757217407, 0.7660444974899292, 0.0, -1.2168653995558998e-07, -0.3789495825767517, 0.5659316182136536, 1.0], "children": [3]}, {"name": "ReToonRigid", "matrix": [1.0, 0.0, 0.0, 0.0, 0.0, 1.0, 0.0, 0.0, 0.0, 0.0, 1.0, 0.0, 0.0, 0.0, 0.0, 1.0], "mesh": 1}, {"name": "wheel0", "matrix": [1.0, -1.5099568884124892e-07, 8.742268420292021e-08, 0.0, 1.5099568884124892e-07, 1.0, -7.620990061241173e-08, 0.0, -8.74226699920655e-08, 7.620991482326644e-08, 1.0, 0.0, 0.45954999327659607, -0.43536996841430664, 0.14351999759674072, 1.0], "children": [5]}, {"name": "ReToonRigid", "matrix": [1.0, 0.0, 0.0, 0.0, 0.0, 1.0, 0.0, 0.0, 0.0, 0.0, 1.0, 0.0, 0.0, 0.0, 0.0, 1.0], "mesh": 2}, {"name": "wheel1", "matrix": [1.0, -1.5099568884124892e-07, 8.742268420292021e-08, 0.0, 1.5099568884124892e-07, 1.0, -7.620990061241173e-08, 0.0, -8.74226699920655e-08, 7.620991482326644e-08, 1.0, 0.0, -0.45954999327659607, -0.43536996841430664, 0.14351999759674072, 1.0], "children": [7]}, {"name": "ReToonRigid", "matrix": [1.0, 0.0, 0.0, 0.0, 0.0, 1.0, 0.0, 0.0, 0.0, 0.0, 1.0, 0.0, 0.0, 0.0, 0.0, 1.0], "mesh": 3}, {"name": "wheel2", "matrix": [1.0, -1.5099581673894136e-07, 8.742278367890322e-08, 0.0, 1.5099581673894136e-07, 1.0, -8.742277657347586e-08, 0.0, -8.74227694680485e-08, 8.742279078433057e-08, 1.0, 0.0, 0.4336799681186676, 0.4973005950450897, 0.17059782147407532, 1.0], "children": [9]}, {"name": "ReToonRigid", "matrix": [1.0, 0.0, 0.0, 0.0, 0.0, 1.0, 0.0, 0.0, 0.0, 0.0, 1.0, 0.0, 0.0, 0.0, 0.0, 1.0], "mesh": 4}, {"name": "wheel3", "matrix": [1.0, -1.5099581673894136e-07, 8.742278367890322e-08, 0.0, 1.5099581673894136e-07, 1.0, -8.742277657347586e-08, 0.0, -8.74227694680485e-08, 8.742279078433057e-08, 1.0, 0.0, -0.4336799681186676, 0.4973005950450897, 0.17059782147407532, 1.0], "children": [11]}, {"name": "ReToonRigid", "matrix": [1.0, 0.0, 0.0, 0.0, 0.0, 1.0, 0.0, 0.0, 0.0, 0.0, 1.0, 0.0, 0.0, 0.0, 0.0, 1.0], "mesh": 5}, {"name": "Relement", "matrix": [1.0, 0.0, 0.0, 0.0, 0.0, 1.0, 0.0, 0.0, 0.0, 0.0, 1.0, 0.0, -1.3206084226169423e-08, -0.06682544201612473, 0.34904998540878296, 1.0]}, {"name": "port0", "matrix": [-1.0, -1.5099580252808664e-07, 0.0, 0.0, 1.5099580252808664e-07, -1.0, 0.0, 0.0, 0.0, 0.0, 1.0, 0.0, 0.19771933555603027, 0.8221190571784973, 0.2309166043996811, 1.0]}, {"rotation": [-0.7071067811865476, 0.0, 0.0, 0.7071067811865476], "children": [0], "name": "zup_root"}], "meshes": [{"primitives": [{"attributes": {"POSITION": 0, "NORMAL": 1, "TEXCOORD_0": 2}, "indices": 3, "material": 0, "mode": 4}], "name": "seat"}, {"primitives": [{"attributes": {"POSITION": 4, "NORMAL": 5, "TEXCOORD_0": 6}, "indices": 7, "material": 0, "mode": 4}], "name": "mesh"}, {"primitives": [{"attributes": {"POSITION": 8, "NORMAL": 9, "TEXCOORD_0": 10}, "indices": 11, "material": 0, "mode": 4}], "name": "mesh"}, {"primitives": [{"attributes": {"POSITION": 12, "NORMAL": 13, "TEXCOORD_0": 14}, "indices": 15, "material": 0, "mode": 4}], "name": "mesh"}, {"primitives": [{"attributes": {"POSITION": 16, "NORMAL": 17, "TEXCOORD_0": 18}, "indices": 19, "material": 0, "mode": 4}], "name": "mesh"}, {"primitives": [{"attributes": {"POSITION": 20, "NORMAL": 21, "TEXCOORD_0": 22}, "indices": 23, "material": 0, "mode": 4}], "name": "mesh"}], "materials": [{"name": "kart", "doubleSided": true, "pbrMetallicRoughness": {"baseColorTexture": {"index": 0}, "metallicFactor": 0.0, "roughnessFactor": 1.0}, "extensions": {"KHR_materials_unlit": {}}}], "textures": [{"source": 0}], "images": [{"uri": "kart_textures/0.png"}], "accessors": [{"bufferView": 0, "componentType": 5126, "count": 804, "type": "VEC3", "min": [-0.7802978754043579, -0.90889573097229, 0.0199681855738163], "max": [0.7802978754043579, 0.7999263405799866, 0.8128437399864197]}, {"bufferView": 1, "componentType": 5126, "count": 804, "type": "VEC3"}, {"bufferView": 2, "componentType": 5126, "count": 804, "type": "VEC2"}, {"bufferView": 3, "componentType": 5125, "count": 804, "type": "SCALAR"}, {"bufferView": 4, "componentType": 5126, "count": 24, "type": "VEC3", "min": [-0.2170027196407318, -0.21699653565883636, -0.001672799582593143], "max": [0.2170027196407318, 0.2169964760541916, 0.0016729234484955668]}, {"bufferView": 5, "componentType": 5126, "count": 24, "type": "VEC3"}, {"bufferView": 6, "componentType": 5126, "count": 24, "type": "VEC2"}, {"bufferView": 7, "componentType": 5125, "count": 24, "type": "SCALAR"}, {"bufferView": 8, "componentType": 5126, "count": 96, "type": "VEC3", "min": [3.099441414633475e-08, -0.14028151333332062, -0.14028137922286987], "max": [0.2255104035139084, 0.14028136432170868, 0.14028146862983704]}, {"bufferView": 9, "componentType": 5126, "count": 96, "type": "VEC3"}, {"bufferView": 10, "componentType": 5126, "count": 96, "type": "VEC2"}, {"bufferView": 11, "componentType": 5125, "count": 96, "type": "SCALAR"}, {"bufferView": 12, "componentType": 5126, "count": 96, "type": "VEC3", "min": [-0.22554998099803925, -0.1402815729379654, -0.14028136432170868], "max": [0.0, 0.1402813345193863, 0.14028149843215942]}, {"bufferView": 13, "componentType": 5126, "count": 96, "type": "VEC3"}, {"bufferView": 14, "componentType": 5126, "count": 96, "type": "VEC2"}, {"bufferView": 15, "componentType": 5125, "count": 96, "type": "SCALAR"}, {"bufferView": 16, "componentType": 5126, "count": 96, "type": "VEC3", "min": [0.0, -0.17014074325561523, -0.17014044523239136], "max": [0.3738800287246704, 0.1701401025056839, 0.17014043033123016]}, {"bufferView": 17, "componentType": 5126, "count": 96, "type": "VEC3"}, {"bufferView": 18, "componentType": 5126, "count": 96, "type": "VEC2"}, {"bufferView": 19, "componentType": 5125, "count": 96, "type": "SCALAR"}, {"bufferView": 20, "componentType": 5126, "count": 96, "type": "VEC3", "min": [-0.37387993931770325, -0.17014063894748688, -0.170140340924263], "max": [0.0, 0.1701401323080063, 0.17014043033123016]}, {"bufferView": 21, "componentType": 5126, "count": 96, "type": "VEC3"}, {"bufferView": 22, "componentType": 5126, "count": 96, "type": "VEC2"}, {"bufferView": 23, "componentType": 5125, "count": 96, "type": "SCALAR"}], "bufferViews": [{"buffer": 0, "byteOffset": 0, "byteLength": 9648, "target": 34962}, {"buffer": 0, "byteOffset": 9648, "byteLength": 9648, "target": 34962}, {"buffer": 0, "byteOffset": 19296, "byteLength": 6432, "target": 34962}, {"buffer": 0, "byteOffset": 25728, "byteLength": 3216, "target": 34963}, {"buffer": 0, "byteOffset": 28944, "byteLength": 288, "target": 34962}, {"buffer": 0, "byteOffset": 29232, "byteLength": 288, "target": 34962}, {"buffer": 0, "byteOffset": 29520, "byteLength": 192, "target": 34962}, {"buffer": 0, "byteOffset": 29712, "byteLength": 96, "target": 34963}, {"buffer": 0, "byteOffset": 29808, "byteLength": 1152, "target": 34962}, {"buffer": 0, "byteOffset": 30960, "byteLength": 1152, "target": 34962}, {"buffer": 0, "byteOffset": 32112, "byteLength": 768, "target": 34962}, {"buffer": 0, "byteOffset": 32880, "byteLength": 384, "target": 34963}, {"buffer": 0, "byteOffset": 33264, "byteLength": 1152, "target": 34962}, {"buffer": 0, "byteOffset": 34416, "byteLength": 1152, "target": 34962}, {"buffer": 0, "byteOffset": 35568, "byteLength": 768, "target": 34962}, {"buffer": 0, "byteOffset": 36336, "byteLength": 384, "target": 34963}, {"buffer": 0, "byteOffset": 36720, "byteLength": 1152, "target": 34962}, {"buffer": 0, "byteOffset": 37872, "byteLength": 1152, "target": 34962}, {"buffer": 0, "byteOffset": 39024, "byteLength": 768, "target": 34962}, {"buffer": 0, "byteOffset": 39792, "byteLength": 384, "target": 34963}, {"buffer": 0, "byteOffset": 40176, "byteLength": 1152, "target": 34962}, {"buffer": 0, "byteOffset": 41328, "byteLength": 1152, "target": 34962}, {"buffer": 0, "byteOffset": 42480, "byteLength": 768, "target": 34962}, {"buffer": 0, "byteOffset": 43248, "byteLength": 384, "target": 34963}], "buffers": [{"uri": "kart.bin", "byteLength": 43632}]}